<?xml version="1.0" encoding="UTF-8" standalone="no"?>
<svg
   xmlns:dc="http://purl.org/dc/elements/1.1/"
   xmlns:cc="http://creativecommons.org/ns#"
   xmlns:rdf="http://www.w3.org/1999/02/22-rdf-syntax-ns#"
   xmlns:svg="http://www.w3.org/2000/svg"
   xmlns="http://www.w3.org/2000/svg"
   xmlns:xlink="http://www.w3.org/1999/xlink"
   xmlns:sodipodi="http://sodipodi.sourceforge.net/DTD/sodipodi-0.dtd"
   xmlns:inkscape="http://www.inkscape.org/namespaces/inkscape"
   version="1.1"
   id="svg2963"
   height="68.26667"
   width="68.26667"
   sodipodi:docname="a2pobj.svg"
   inkscape:version="0.92.3 (2405546, 2018-03-11)">
  <sodipodi:namedview
     pagecolor="#ffffff"
     bordercolor="#666666"
     borderopacity="1"
     objecttolerance="10"
     gridtolerance="10"
     guidetolerance="10"
     inkscape:pageopacity="0"
     inkscape:pageshadow="2"
     inkscape:window-width="1920"
     inkscape:window-height="1001"
     id="namedview17"
     showgrid="false"
     inkscape:zoom="11.835937"
     inkscape:cx="34.133335"
     inkscape:cy="34.133335"
     inkscape:window-x="-9"
     inkscape:window-y="-9"
     inkscape:window-maximized="1"
     inkscape:current-layer="svg2963" />
  <defs
     id="defs2965">
    <linearGradient
       id="linearGradient832">
      <stop
         id="stop828"
         offset="0"
         style="stop-color:#d40000;stop-opacity:1;" />
      <stop
         id="stop830"
         offset="1"
         style="stop-color:#d40000;stop-opacity:0;" />
    </linearGradient>
    <linearGradient
       id="linearGradient3354">
      <stop
         id="stop3356"
         offset="0"
         style="stop-color:#2157c7;stop-opacity:1;" />
      <stop
         id="stop3358"
         offset="1"
         style="stop-color:#6daaff;stop-opacity:1;" />
    </linearGradient>
    <linearGradient
       gradientUnits="userSpaceOnUse"
       y2="59.272804"
       x2="14.34337"
       y1="6.9468999"
       x1="50.471035"
       id="linearGradient834"
       xlink:href="#linearGradient832" />
    <linearGradient
       gradientTransform="translate(0,-4)"
       inkscape:collect="always"
       xlink:href="#linearGradient3777"
       id="linearGradient3783"
       x1="53.896763"
       y1="51.179787"
       x2="47.502235"
       y2="21.83742"
       gradientUnits="userSpaceOnUse" />
    <linearGradient
       inkscape:collect="always"
       id="linearGradient3777">
      <stop
         style="stop-color:#204a87;stop-opacity:1"
         offset="0"
         id="stop3779" />
      <stop
         style="stop-color:#3465a4;stop-opacity:1"
         offset="1"
         id="stop3781" />
    </linearGradient>
    <linearGradient
       gradientTransform="translate(0,-4)"
       inkscape:collect="always"
       xlink:href="#linearGradient3767"
       id="linearGradient3773"
       x1="22.116516"
       y1="55.717518"
       x2="17.328547"
       y2="21.31134"
       gradientUnits="userSpaceOnUse" />
    <linearGradient
       inkscape:collect="always"
       id="linearGradient3767">
      <stop
         style="stop-color:#3465a4;stop-opacity:1"
         offset="0"
         id="stop3769" />
      <stop
         style="stop-color:#729fcf;stop-opacity:1"
         offset="1"
         id="stop3771" />
    </linearGradient>
    <linearGradient
       inkscape:collect="always"
       xlink:href="#linearGradient3792"
       id="linearGradient3806"
       x1="4115.4229"
       y1="1473.5258"
       x2="4157.8677"
       y2="1734.2576"
       gradientUnits="userSpaceOnUse" />
    <linearGradient
       id="linearGradient3792">
      <stop
         style="stop-color:#fce94f;stop-opacity:1"
         offset="0"
         id="stop3794" />
      <stop
         style="stop-color:#c4a000;stop-opacity:1"
         offset="1"
         id="stop3796" />
    </linearGradient>
  </defs>
  <metadata
     id="metadata2968">
    <rdf:RDF>
      <cc:Work
         rdf:about="">
        <dc:format>image/svg+xml</dc:format>
        <dc:type
           rdf:resource="http://purl.org/dc/dcmitype/StillImage" />
        <dc:title />
      </cc:Work>
    </rdf:RDF>
  </metadata>
  <g
     transform="translate(0.951414,-1.536714)"
     id="g840">
    <path
       sodipodi:nodetypes="ccccc"
       inkscape:connector-curvature="0"
       id="path2993"
       d="M 3,13 37,19 61,11 31,7 Z"
       style="fill:#729fcf;stroke:#0b1521;stroke-width:2;stroke-linecap:butt;stroke-linejoin:round;stroke-opacity:1" />
    <path
       inkscape:connector-curvature="0"
       id="path2995"
       d="M 61,11 V 47 L 37,57 V 19 Z"
       style="fill:url(#linearGradient3783);fill-opacity:1;stroke:#0b1521;stroke-width:2;stroke-linecap:butt;stroke-linejoin:round;stroke-opacity:1" />
    <path
       style="display:inline;overflow:visible;visibility:visible;fill:url(#linearGradient3773);fill-opacity:1;fill-rule:evenodd;stroke:#0b1521;stroke-width:2;stroke-linecap:butt;stroke-linejoin:round;stroke-miterlimit:4;stroke-dasharray:none;stroke-dashoffset:0;stroke-opacity:1;marker:none;enable-background:accumulate"
       d="m 3,13 34,6 V 57 L 3,51 Z"
       id="path3825"
       sodipodi:nodetypes="ccccc"
       inkscape:connector-curvature="0" />
    <path
       sodipodi:nodetypes="ccccc"
       inkscape:connector-curvature="0"
       id="path3765"
       d="m 5,15.42772 0.00867,33.919116 30.008671,5.268799 -0.0087,-33.933614 z"
       style="fill:none;stroke:#729fcf;stroke-width:2;stroke-linecap:butt;stroke-linejoin:miter;stroke-opacity:1" />
    <path
       sodipodi:nodetypes="ccccc"
       inkscape:connector-curvature="0"
       id="path3775"
       d="m 39.01243,20.433833 -0.01226,33.535301 20.001105,-8.300993 3.6e-4,-31.867363 z"
       style="fill:none;stroke:#3465a4;stroke-width:2;stroke-linecap:butt;stroke-linejoin:miter;stroke-opacity:1" />
  </g>
  <g
     transform="matrix(0.13023278,0,0,0.13023278,-488.28846,-160.07881)"
     id="g843">
    <path
       sodipodi:nodetypes="ccccccccscccccccccccccccccccccc"
       inkscape:connector-curvature="0"
       style="font-style:normal;font-variant:normal;font-weight:bold;font-stretch:normal;font-size:40px;font-family:'Copperplate Gothic Bold';-inkscape-font-specification:'Copperplate Gothic Bold, Bold';fill:url(#linearGradient3806);fill-opacity:1;stroke:#302b00;stroke-width:12.1270628;stroke-linecap:round;stroke-linejoin:round;stroke-miterlimit:4;stroke-dasharray:none;stroke-opacity:1"
       d="m 4151.8039,1655.4317 h -109.1436 l -33.475,40.7475 c -3.5157,5.2084 -2.3853,4.766 -2.9061,7.7608 0,6.0635 3.9238,9.9135 12.127,12.127 v 12.1271 h -97.0165 v -12.1271 c 5.4688,-1.0416 14.9354,-3.4593 18.1906,-6.0635 3.2552,-2.6042 6.0635,-6.0635 12.1271,-12.1271 l 139.4612,-200.0965 c 4.4269,-6.5102 5.282,-8.2206 6.0635,-12.1271 1.3019,-5.9893 0.9676,-9.5226 -6.0635,-12.127 v -12.1271 h 97.0165 v 12.1271 c -12.1271,0 -17.1492,0.595 -18.1906,6.0635 -0.7815,3.7763 -0.6532,6.3037 0.9096,11.1211 l 60.3515,205.4688 c 2.6039,8.724 2.8332,10.5692 5.4377,13.8243 2.6039,3.1251 6.9184,5.0219 12.1271,6.0635 v 12.1271 h -97.0165 v -12.1271 c 8.9841,-1.4322 10.8248,-5.4864 12.1271,-12.127 0.5206,-2.7344 1.5622,-6.7885 0,-12.1271 l -12.1271,-36.3812 m 0,-36.3812 -24.2541,-97.0165 -72.7624,97.0165 h 97.0165"
       id="text2714" />
    <path
       sodipodi:nodetypes="ccccccccscccccccccccccccccccccc"
       inkscape:connector-curvature="0"
       style="font-style:normal;font-variant:normal;font-weight:bold;font-stretch:normal;font-size:40px;font-family:'Copperplate Gothic Bold';-inkscape-font-specification:'Copperplate Gothic Bold, Bold';fill:none;stroke:#fce94f;stroke-width:12.1270628;stroke-linecap:round;stroke-linejoin:round;stroke-miterlimit:4;stroke-dasharray:none;stroke-opacity:1"
       d="m 4159.5466,1643.3046 h -122.0515 l -36.1634,43.7572 c -8.9781,11.6058 -6.5743,17.6706 -7.5981,18.9453 0,5.6501 9.2106,8.5485 16.6543,10.6111 l 1.2403,-0.1378 -78.1114,-0.4134 -3.7208,2.894 c 4.9624,-0.9706 23.3368,-5.4284 26.2906,-7.855 2.9538,-2.4267 7.4313,-8.4063 12.2445,-15.4346 l 117.1771,-168.1251 c 4.017,-6.0664 15.8176,-22.4055 19.0073,-28.5262 3.3862,-5.5809 9.1465,-22.5163 2.7663,-24.9431 l -10.1978,-0.5513 h 85.1396 l -13.0918,-0.6889 c -11.0041,0 -10.738,5.2398 -11.5452,9.233 -0.709,3.5189 0.6477,7.8032 2.0658,12.2922 l 55.5901,189.1168 c 2.3628,8.1291 2.4331,9.7107 3.8319,14.9489 3.6029,9.9401 1.3166,12.3967 6.0431,13.3673 l 17.6394,4.272 h -84.8895 l 12.5405,-6.2013 c 4.9826,-8.914 5.1625,-6.4905 6.3443,-12.6783 0.4724,-2.548 -2.5789,-12.6647 -3.9965,-17.6393 l -12.9335,-35.4166 m 4.4613,-18.4109 -33.36,-122.5662 -89.8152,122.4284 122.0295,0.024"
       id="text2714-1" />
    <path
       sodipodi:nodetypes="ccccccccscccccccccccccccccccccc"
       inkscape:connector-curvature="0"
       style="font-style:normal;font-variant:normal;font-weight:bold;font-stretch:normal;font-size:40px;font-family:'Copperplate Gothic Bold';-inkscape-font-specification:'Copperplate Gothic Bold, Bold';fill:none;stroke:#302b00;stroke-width:12.1270628;stroke-linecap:round;stroke-linejoin:round;stroke-miterlimit:4;stroke-dasharray:none;stroke-opacity:1"
       d="m 4151.8039,1655.4317 h -109.1436 l -33.4751,40.7475 c -3.5156,5.2084 -2.3852,4.766 -2.9061,7.7608 0,6.0635 3.9239,9.9135 12.1271,12.127 v 12.1271 h -97.0165 v -12.1271 c 5.4688,-1.0416 14.9354,-3.4593 18.1906,-6.0635 3.2552,-2.6042 6.0635,-6.0635 12.1271,-12.1271 l 139.4611,-200.0965 c 4.4269,-6.5102 5.2821,-8.2206 6.0636,-12.1271 1.3019,-5.9893 0.9676,-9.5226 -6.0636,-12.127 v -12.1271 h 97.0165 v 12.1271 c -12.127,0 -17.1492,0.595 -18.1906,6.0635 -0.7814,3.7763 -0.6531,6.3037 0.9097,11.1211 l 60.3514,205.4688 c 2.6039,8.724 2.8333,10.5692 5.4378,13.8243 2.6038,3.1251 6.9183,5.0219 12.1271,6.0635 v 12.1271 h -97.0165 v -12.1271 c 8.984,-1.4322 10.8247,-5.4864 12.127,-12.127 0.5207,-2.7344 1.5623,-6.7885 0,-12.1271 l -12.127,-36.3812 m 0,-36.3812 -24.2542,-97.0165 -72.7623,97.0165 h 97.0165"
       id="text2714-7" />
  </g>
</svg>
