<?xml version="1.0" encoding="UTF-8" standalone="no"?>
<!-- Created with Inkscape (http://www.inkscape.org/) -->

<svg
   xmlns:dc="http://purl.org/dc/elements/1.1/"
   xmlns:cc="http://creativecommons.org/ns#"
   xmlns:rdf="http://www.w3.org/1999/02/22-rdf-syntax-ns#"
   xmlns:svg="http://www.w3.org/2000/svg"
   xmlns="http://www.w3.org/2000/svg"
   xmlns:xlink="http://www.w3.org/1999/xlink"
   xmlns:sodipodi="http://sodipodi.sourceforge.net/DTD/sodipodi-0.dtd"
   xmlns:inkscape="http://www.inkscape.org/namespaces/inkscape"
   width="32px"
   height="32px"
   id="svg3085"
   version="1.1"
   inkscape:version="0.91 r13725"
   sodipodi:docname="partsInfo.svg">
  <defs
     id="defs3087">
    <inkscape:path-effect
       effect="skeletal"
       id="path-effect3066"
       is_visible="true"
       pattern="M 0,0 0,10 10,5 z"
       copytype="single_stretched"
       prop_scale="1"
       scale_y_rel="false"
       spacing="0"
       normal_offset="0"
       tang_offset="0"
       prop_units="false"
       vertical_pattern="false"
       fuse_tolerance="0" />
    <linearGradient
       inkscape:collect="always"
       id="linearGradient7597">
      <stop
         style="stop-color:#000003;stop-opacity:1;"
         offset="0"
         id="stop7599" />
      <stop
         style="stop-color:#000003;stop-opacity:0;"
         offset="1"
         id="stop7601" />
    </linearGradient>
    <marker
       inkscape:stockid="Arrow1Lstart"
       orient="auto"
       refY="0.0"
       refX="0.0"
       id="Arrow1Lstart"
       style="overflow:visible">
      <path
         id="path3995"
         d="M 0.0,0.0 L 5.0,-5.0 L -12.5,0.0 L 5.0,5.0 L 0.0,0.0 z "
         style="fill-rule:evenodd;stroke:#000000;stroke-width:1.0pt"
         transform="scale(0.8) translate(12.5,0)" />
    </marker>
    <marker
       inkscape:stockid="Arrow1Send"
       orient="auto"
       refY="0.0"
       refX="0.0"
       id="Arrow1Send"
       style="overflow:visible;">
      <path
         id="path4010"
         d="M 0.0,0.0 L 5.0,-5.0 L -12.5,0.0 L 5.0,5.0 L 0.0,0.0 z "
         style="fill-rule:evenodd;stroke:#000000;stroke-width:1.0pt;"
         transform="scale(0.2) rotate(180) translate(6,0)" />
    </marker>
    <marker
       inkscape:stockid="Arrow1Sstart"
       orient="auto"
       refY="0.0"
       refX="0.0"
       id="Arrow1Sstart"
       style="overflow:visible">
      <path
         id="path4007"
         d="M 0.0,0.0 L 5.0,-5.0 L -12.5,0.0 L 5.0,5.0 L 0.0,0.0 z "
         style="fill-rule:evenodd;stroke:#000000;stroke-width:1.0pt"
         transform="scale(0.2) translate(6,0)" />
    </marker>
    <marker
       inkscape:stockid="Arrow2Sstart"
       orient="auto"
       refY="0.0"
       refX="0.0"
       id="Arrow2Sstart"
       style="overflow:visible">
      <path
         id="path4025"
         style="fill-rule:evenodd;stroke-width:0.62500000;stroke-linejoin:round"
         d="M 8.7185878,4.0337352 L -2.2072895,0.016013256 L 8.7185884,-4.0017078 C 6.9730900,-1.6296469 6.9831476,1.6157441 8.7185878,4.0337352 z "
         transform="scale(0.3) translate(-2.3,0)" />
    </marker>
    <marker
       inkscape:stockid="TriangleOutL"
       orient="auto"
       refY="0.0"
       refX="0.0"
       id="TriangleOutL"
       style="overflow:visible">
      <path
         id="path4137"
         d="M 5.77,0.0 L -2.88,5.0 L -2.88,-5.0 L 5.77,0.0 z "
         style="fill-rule:evenodd;stroke:#000000;stroke-width:1.0pt"
         transform="scale(0.8)" />
    </marker>
    <marker
       inkscape:stockid="DiamondLend"
       orient="auto"
       refY="0.0"
       refX="0.0"
       id="DiamondLend"
       style="overflow:visible">
      <path
         id="path4092"
         d="M 0,-7.0710768 L -7.0710894,0 L 0,7.0710589 L 7.0710462,0 L 0,-7.0710768 z "
         style="fill-rule:evenodd;stroke:#000000;stroke-width:1.0pt"
         transform="scale(0.8) translate(-7,0)" />
    </marker>
    <marker
       inkscape:stockid="DiamondLstart"
       orient="auto"
       refY="0.0"
       refX="0.0"
       id="DiamondLstart"
       style="overflow:visible">
      <path
         id="path4083"
         d="M 0,-7.0710768 L -7.0710894,0 L 0,7.0710589 L 7.0710462,0 L 0,-7.0710768 z "
         style="fill-rule:evenodd;stroke:#000000;stroke-width:1.0pt"
         transform="scale(0.8) translate(7,0)" />
    </marker>
    <marker
       inkscape:stockid="Arrow1Lend"
       orient="auto"
       refY="0.0"
       refX="0.0"
       id="Arrow1Lend"
       style="overflow:visible;">
      <path
         id="path3998"
         d="M 0.0,0.0 L 5.0,-5.0 L -12.5,0.0 L 5.0,5.0 L 0.0,0.0 z "
         style="fill-rule:evenodd;stroke:#000000;stroke-width:1.0pt;"
         transform="scale(0.8) rotate(180) translate(12.5,0)" />
    </marker>
    <linearGradient
       id="linearGradient3893">
      <stop
         style="stop-color:#ffffff;stop-opacity:1;"
         offset="0"
         id="stop3895" />
      <stop
         style="stop-color:#ffffff;stop-opacity:0;"
         offset="1"
         id="stop3897" />
    </linearGradient>
    <linearGradient
       inkscape:collect="always"
       xlink:href="#linearGradient7597"
       id="linearGradient7603"
       x1="15.71482"
       y1="22.299378"
       x2="34.136209"
       y2="22.299378"
       gradientUnits="userSpaceOnUse" />
  </defs>
  <sodipodi:namedview
     id="base"
     pagecolor="#ffffff"
     bordercolor="#666666"
     borderopacity="1.0"
     inkscape:pageopacity="0.0"
     inkscape:pageshadow="2"
     inkscape:zoom="22.627417"
     inkscape:cx="16.484305"
     inkscape:cy="21.815626"
     inkscape:current-layer="layer1"
     showgrid="true"
     inkscape:grid-bbox="true"
     inkscape:document-units="px"
     inkscape:window-width="3840"
     inkscape:window-height="2094"
     inkscape:window-x="0"
     inkscape:window-y="0"
     inkscape:window-maximized="1" />
  <metadata
     id="metadata3090">
    <rdf:RDF>
      <cc:Work
         rdf:about="">
        <dc:format>image/svg+xml</dc:format>
        <dc:type
           rdf:resource="http://purl.org/dc/dcmitype/StillImage" />
        <dc:title />
      </cc:Work>
    </rdf:RDF>
  </metadata>
  <g
     id="layer1"
     inkscape:label="Layer 1"
     inkscape:groupmode="layer">
    <rect
       style="fill:#000000;fill-opacity:1;stroke:#000000;stroke-width:0.11415751000000000;stroke-linecap:butt;stroke-miterlimit:4;stroke-opacity:1;stroke-dasharray:none"
       id="rect3018"
       width="1.2970899"
       height="32.02499"
       x="0.058561768"
       y="0.011311022" />
    <rect
       style="fill:#000000;fill-opacity:1;stroke:#000000;stroke-width:0.11415751000000000;stroke-linecap:butt;stroke-miterlimit:4;stroke-opacity:1;stroke-dasharray:none"
       id="rect3018-5"
       width="1.2970899"
       height="32.02499"
       x="30.72147"
       y="0.021291591" />
    <text
       xml:space="preserve"
       style="font-size:8px;font-style:normal;font-weight:bold;line-height:125%;letter-spacing:0px;word-spacing:0px;fill:#000000;fill-opacity:1;stroke:none;font-family:Sans;-inkscape-font-specification:Sans Bold"
       x="4.0273438"
       y="9.2841949"
       id="text3013"
       sodipodi:linespacing="125%"><tspan
         sodipodi:role="line"
         id="tspan3015"
         x="4.0273438"
         y="9.2841949">Parts</tspan></text>
    <text
       xml:space="preserve"
       style="font-style:normal;font-weight:bold;font-size:15.36060047px;line-height:125%;font-family:Sans;-inkscape-font-specification:'Sans Bold';letter-spacing:0px;word-spacing:0px;fill:#000000;fill-opacity:1;stroke:none"
       x="2.4622366"
       y="23.373384"
       id="text3017"
       sodipodi:linespacing="125%"
       transform="scale(0.82743041,1.2085609)"><tspan
         sodipodi:role="line"
         id="tspan3019"
         x="2.4622366"
         y="23.373384">Info</tspan></text>
    <rect
       style="fill:#000000;fill-opacity:1;stroke:#000000;stroke-width:0.11415751;stroke-linecap:butt;stroke-miterlimit:4;stroke-opacity:1;stroke-dasharray:none"
       id="rect3018-3"
       width="1.2970899"
       height="32.02499"
       x="-0.026408914"
       y="-32.054981"
       transform="matrix(0,1,-1,0,0,0)" />
    <rect
       style="fill:#000000;fill-opacity:1;stroke:#000000;stroke-width:0.11415751;stroke-linecap:butt;stroke-miterlimit:4;stroke-opacity:1;stroke-dasharray:none"
       id="rect3018-3-6"
       width="1.2970899"
       height="32.02499"
       x="11.354873"
       y="-31.978708"
       transform="matrix(0,1,-1,0,0,0)" />
    <rect
       style="fill:#000000;fill-opacity:1;stroke:#000000;stroke-width:0.11415751;stroke-linecap:butt;stroke-miterlimit:4;stroke-opacity:1;stroke-dasharray:none"
       id="rect3018-3-6-9-2"
       width="1.2970899"
       height="32.02499"
       x="30.636494"
       y="-31.934515"
       transform="matrix(0,1,-1,0,0,0)" />
    <path
       style="fill:#ffff00;fill-opacity:1"
       d="m 1.4229313,21.652762 0,-8.905126 14.6061747,0 14.606174,0 0,8.905126 0,8.905126 -14.606174,0 -14.6061747,0 0,-8.905126 z m 25.3667337,6.740043 c 0.563639,-0.161648 0.90334,-0.369468 1.370741,-0.838582 0.622255,-0.624535 0.978275,-1.321211 1.218528,-2.384475 0.302826,-1.340185 0.242971,-3.29851 -0.137914,-4.512251 -0.653862,-2.083618 -2.207032,-3.106903 -4.190691,-2.760982 -1.652993,0.288258 -2.766494,1.707008 -3.052135,3.88883 -0.226919,1.733283 -0.04015,3.442774 0.502713,4.601202 0.530128,1.131265 1.350911,1.82264 2.455422,2.068291 0.441866,0.09827 1.385732,0.06634 1.833336,-0.06203 z m -21.1682872,-6.916819 0,-6.783806 -1.2153398,0 -1.2153398,0 0,6.783806 0,6.783805 1.2153398,0 1.2153398,0 0,-6.783805 z m 4.4639742,4.076912 c 2.21e-4,-1.547215 0.01967,-2.877295 0.04543,-3.104641 0.140156,-1.237075 0.563043,-1.959062 1.231434,-2.102406 0.474975,-0.101864 0.884599,0.180583 1.072015,0.739184 l 0.101514,0.302562 0.01431,3.436097 0.01431,3.436097 1.149366,0 1.149367,0 -0.01727,-3.63497 c -0.01819,-3.827173 -0.02029,-3.869663 -0.233078,-4.708491 -0.393057,-1.549477 -1.47452,-2.34728 -2.73634,-2.018618 -0.559925,0.145842 -1.099819,0.573835 -1.545347,1.225052 l -0.246062,0.359661 0,-0.693647 0,-0.693647 -1.1269511,0 -1.1269514,0 0,5.08233 0,5.08233 1.1269514,0 1.1269511,0 3.54e-4,-2.706893 9e-6,0 z m 9.324608,-1.204291 0,-3.911184 0.950175,0 0.950174,0 0,-1.171146 0,-1.171146 -0.957026,0 -0.957026,0 0.02882,-0.601015 c 0.03959,-0.825493 0.145718,-1.055032 0.537306,-1.162113 0.09723,-0.02659 0.480059,-0.04845 0.850738,-0.04859 l 0.673961,-2.47e-4 0,-1.087052 0,-1.087052 -1.160097,0.01978 c -0.994881,0.01696 -1.202347,0.0324 -1.456765,0.10839 -0.565282,0.168842 -1.015349,0.524496 -1.280546,1.01192 -0.27082,0.497756 -0.433621,1.384399 -0.433621,2.361573 l 0,0.484402 -0.552427,0 -0.552427,0 0,1.171146 0,1.171146 0.552427,0 0.552427,0 0,3.911184 0,3.911184 1.126952,0 1.126951,0 0,-3.911184 z"
       id="path3369"
       inkscape:connector-curvature="0" />
    <path
       style="fill:#ffff00;fill-opacity:1"
       d="m 25.486659,26.141341 c -0.51601,-0.125622 -0.89883,-0.636458 -1.088657,-1.452706 -0.113,-0.485899 -0.163106,-1.918556 -0.08708,-2.489858 0.100059,-0.751895 0.300321,-1.289468 0.607321,-1.630256 0.227057,-0.252049 0.474274,-0.357594 0.837588,-0.357594 0.500129,0 0.805443,0.215408 1.082091,0.763444 0.510104,1.01051 0.517882,3.331589 0.01473,4.395167 -0.285535,0.603571 -0.818977,0.904973 -1.365992,0.771803 z"
       id="path3371"
       inkscape:connector-curvature="0" />
    <path
       style="fill:#ffffff;fill-opacity:1"
       d="m 1.4229309,6.317384 0,-4.9718445 14.6061741,0 14.606175,0 0,4.9718445 0,4.971845 -14.606175,0 -14.6061741,0 0,-4.971845 z M 11.863946,9.3881632 c 0.390673,-0.056495 0.669817,-0.1914916 0.927936,-0.4487587 l 0.209922,-0.2092289 0,0.2851576 0,0.2851576 0.732664,0 0.732664,0 -0.01752,-1.5578447 C 14.430274,6.0225793 14.417587,5.9314827 14.139393,5.515218 13.963566,5.2521269 13.661838,5.0447473 13.273672,4.9202033 12.726174,4.7445366 11.493602,4.7635103 10.571125,4.9618053 l -0.15468,0.03325 -0.01235,0.5598735 -0.01235,0.5598733 0.239153,-0.1057646 c 0.728791,-0.3223061 1.933376,-0.3256256 2.233503,-0.00615 0.05526,0.058817 0.111069,0.1860018 0.12403,0.2826332 l 0.02356,0.1756931 -0.833731,0.021183 c -0.747664,0.018995 -0.87072,0.033236 -1.192036,0.1379432 -0.423185,0.1379031 -0.705355,0.360602 -0.860921,0.6794687 -0.0862,0.1766803 -0.103157,0.2823963 -0.104727,0.6527652 -0.0016,0.3804614 0.013,0.4721617 0.105044,0.6591729 0.197597,0.4014713 0.535196,0.6530776 1.020034,0.7602131 0.306652,0.067762 0.354358,0.068838 0.718297,0.016209 z M 26.119203,9.3175519 C 26.63164,9.1849398 26.993813,8.928717 27.130191,8.6023187 27.304849,8.1843015 27.279778,7.5876877 27.072666,7.2334263 26.867068,6.8817542 26.435823,6.6990308 25.471549,6.5550148 25.139564,6.505432 24.798334,6.4316812 24.713261,6.3911242 c -0.137652,-0.065622 -0.15468,-0.092676 -0.15468,-0.2457474 0,-0.2638861 0.150168,-0.3541673 0.621934,-0.3739066 0.448497,-0.018766 0.837562,0.043443 1.35827,0.2171781 0.214067,0.071424 0.398025,0.1298619 0.408796,0.1298619 0.01077,0 0.01958,-0.2457156 0.01958,-0.5460343 l 0,-0.5460344 -0.342504,-0.072633 C 26.073135,4.836849 25.694156,4.794443 25.199396,4.7943278 c -1.378416,-3.226e-4 -2.0021,0.4885257 -1.934948,1.5166246 0.05115,0.7831911 0.503343,1.1072007 1.801492,1.2908363 0.279047,0.039474 0.563296,0.1006973 0.631665,0.1360522 0.266686,0.1379084 0.239089,0.437213 -0.05627,0.6102455 -0.3149,0.184482 -1.416278,0.077156 -2.065933,-0.2013181 -0.107414,-0.046043 -0.214148,-0.083714 -0.237188,-0.083714 -0.02478,0 -0.03682,0.2200264 -0.02948,0.5386315 l 0.01241,0.538632 0.30684,0.077368 c 0.168762,0.042552 0.477016,0.098642 0.685009,0.124643 0.207994,0.026001 0.437833,0.055263 0.510753,0.065025 0.239232,0.032028 1.038884,-0.023404 1.295457,-0.089802 z M 6.28429,8.2840248 l 0,-1.016466 0.7442317,0 c 0.8207379,0 1.209511,-0.067975 1.6418834,-0.2870743 C 9.331165,6.6456522 9.6735624,5.8962299 9.5532765,5.0481024 9.4427358,4.2686913 8.9835018,3.7675729 8.1625424,3.530527 7.9399456,3.4662538 7.6437426,3.4508362 6.3174357,3.4344882 l -1.5799418,-0.019475 0,2.9427386 0,2.9427385 0.7733981,0 0.773398,0 0,-1.016466 z m 10.871767,-0.081018 c 0,-0.6590871 0.02057,-1.1998877 0.05148,-1.3538421 0.136407,-0.6792203 0.689086,-1.0186501 1.384826,-0.8504974 0.145841,0.035248 0.300513,0.078969 0.343717,0.097158 0.07354,0.03096 0.07777,-0.00887 0.06629,-0.6239866 l -0.01226,-0.6570571 -0.441942,0 c -0.392848,0 -0.46948,0.013524 -0.689848,0.1217461 -0.138835,0.068182 -0.347859,0.2274314 -0.475087,0.3619565 l -0.227181,0.2402103 0,-0.3288108 0,-0.3288108 -0.707107,0 -0.707107,0 0,2.2097087 0,2.2097087 0.707107,0 0.707107,0 0,-1.0974837 z m 5.391689,0.5892507 0,-0.508233 -0.342505,-0.00263 c -0.502577,-0.00387 -0.764535,-0.056712 -0.858921,-0.1732739 -0.07237,-0.089371 -0.0802,-0.2000529 -0.0802,-1.1327161 l 0,-1.0336673 0.707107,0 0.707107,0 0,-0.53033 0,-0.5303301 -0.707107,0 -0.707107,0 0,-0.6187185 0,-0.6187184 -0.729204,0 -0.729204,0 0,0.6187184 0,0.6187185 -0.353553,0 -0.353554,0 0,0.5303301 0,0.53033 0.353554,0 0.353553,0 0,1.0546282 c 0,1.1311118 0.03165,1.4181923 0.190635,1.7292004 0.228063,0.4461349 0.599049,0.5678956 1.74286,0.5720202 l 0.806544,0.00291 0,-0.508233 z"
       id="path3368"
       inkscape:connector-curvature="0" />
    <path
       style="fill:#ffffff;fill-opacity:1"
       d="m 6.28429,5.3724349 0,-0.8007207 0.5237353,0 c 0.5882448,0 0.7620883,0.041783 0.9637655,0.2316391 C 8.021783,5.0386925 8.0625841,5.5181807 7.8581963,5.8187756 7.6895469,6.0668098 7.4826434,6.1358185 6.8483807,6.1555803 l -0.5640907,0.017575 0,-0.8007208 z"
       id="path3370"
       inkscape:connector-curvature="0" />
    <path
       style="fill:#ffffff;fill-opacity:1"
       d="M 11.823275,8.4123074 C 11.48911,8.3155617 11.339255,7.8685764 11.550817,7.5996196 11.705968,7.4023768 11.881121,7.3559471 12.470055,7.3559471 l 0.531749,0 -2.47e-4,0.1436311 c -7.16e-4,0.4175365 -0.294437,0.8141335 -0.67367,0.9096255 -0.234672,0.059091 -0.309637,0.059552 -0.504613,0.0031 l 1e-6,0 z"
       id="path3372"
       inkscape:connector-curvature="0" />
  </g>
</svg>
