<?xml version="1.0" encoding="UTF-8" standalone="no"?>
<!-- Created with Inkscape (http://www.inkscape.org/) -->

<svg
   xmlns:dc="http://purl.org/dc/elements/1.1/"
   xmlns:cc="http://creativecommons.org/ns#"
   xmlns:rdf="http://www.w3.org/1999/02/22-rdf-syntax-ns#"
   xmlns:svg="http://www.w3.org/2000/svg"
   xmlns="http://www.w3.org/2000/svg"
   xmlns:sodipodi="http://sodipodi.sourceforge.net/DTD/sodipodi-0.dtd"
   xmlns:inkscape="http://www.inkscape.org/namespaces/inkscape"
   width="32"
   height="32"
   viewBox="0 0 32 32.000001"
   id="svg2"
   version="1.1"
   inkscape:version="0.91 r13725"
   sodipodi:docname="glasses.svg">
  <defs
     id="defs4" />
  <sodipodi:namedview
     id="base"
     pagecolor="#ffffff"
     bordercolor="#666666"
     borderopacity="1.0"
     inkscape:pageopacity="0.0"
     inkscape:pageshadow="2"
     inkscape:zoom="11.2"
     inkscape:cx="21.521967"
     inkscape:cy="17.412969"
     inkscape:document-units="px"
     inkscape:current-layer="layer1"
     showgrid="false"
     units="px"
     inkscape:window-width="1464"
     inkscape:window-height="1036"
     inkscape:window-x="807"
     inkscape:window-y="479"
     inkscape:window-maximized="0" />
  <metadata
     id="metadata7">
    <rdf:RDF>
      <cc:Work
         rdf:about="">
        <dc:format>image/svg+xml</dc:format>
        <dc:type
           rdf:resource="http://purl.org/dc/dcmitype/StillImage" />
        <dc:title></dc:title>
      </cc:Work>
    </rdf:RDF>
  </metadata>
  <g
     inkscape:label="Ebene 1"
     inkscape:groupmode="layer"
     id="layer1"
     transform="translate(0,-1020.3622)">
    <rect
       style="color:#000000;clip-rule:nonzero;display:inline;overflow:visible;visibility:visible;opacity:1;isolation:auto;mix-blend-mode:normal;color-interpolation:sRGB;color-interpolation-filters:linearRGB;solid-color:#000000;solid-opacity:1;fill:#ffff00;fill-opacity:1;fill-rule:nonzero;stroke:#000000;stroke-width:1.25649405;stroke-linecap:butt;stroke-linejoin:miter;stroke-miterlimit:4;stroke-dasharray:none;stroke-dashoffset:0;stroke-opacity:1;color-rendering:auto;image-rendering:optimizeSpeed;shape-rendering:auto;text-rendering:auto;enable-background:accumulate"
       id="rect4227"
       width="50.45779"
       height="44.297077"
       x="-10.050324"
       y="1015.5262" />
    <g
       id="g4215"
       transform="translate(40.089286,-7.6785714)">
      <path
         d="m -25.799032,1036.0973 a 8.5267859,3.9732144 0 0 1 0.23964,-5.6164 8.5267859,3.9732144 0 0 1 12.053281,0.1087 8.5267859,3.9732144 0 0 1 -0.227018,5.6165 8.5267859,3.9732144 0 0 1 -12.053518,-0.1028 l 6.13717,-2.7583 z"
         sodipodi:end="2.3742412"
         sodipodi:start="2.3763356"
         sodipodi:ry="3.9732144"
         sodipodi:rx="8.5267859"
         sodipodi:cy="1033.345"
         sodipodi:cx="-19.649477"
         sodipodi:type="arc"
         id="path3336-3"
         style="fill:#808080;fill-opacity:1;stroke:#000000;stroke-opacity:1" />
      <path
         d="m -23.577231,1034.0627 a 0.8035714,0.13392857 0 0 1 0.02258,-0.1893 0.8035714,0.13392857 0 0 1 1.135911,0 0.8035714,0.13392857 0 0 1 -0.0214,0.1893 0.8035714,0.13392857 0 0 1 -1.135933,-0 l 0.578372,-0.093 z"
         sodipodi:end="2.3742412"
         sodipodi:start="2.3763356"
         sodipodi:ry="0.13392857"
         sodipodi:rx="0.8035714"
         sodipodi:cy="1033.97"
         sodipodi:cx="-22.997692"
         sodipodi:type="arc"
         id="path3338-6"
         style="fill:#808080;fill-opacity:1;stroke:none;stroke-opacity:1" />
      <path
         inkscape:connector-curvature="0"
         id="path4159-7"
         d="m -27.908406,1033.7467 7.678571,15.0893 9.375,-15"
         style="fill:none;fill-rule:evenodd;stroke:#000000;stroke-width:1px;stroke-linecap:butt;stroke-linejoin:miter;stroke-opacity:1" />
      <path
         d="m -23.461506,1054.0419 a 4.4803677,1.7148783 0 0 1 0.125918,-2.4241 4.4803677,1.7148783 0 0 1 6.333351,0.047 4.4803677,1.7148783 0 0 1 -0.119286,2.4241 4.4803677,1.7148783 0 0 1 -6.333476,-0.044 l 3.224753,-1.1905 z"
         sodipodi:end="2.3742412"
         sodipodi:start="2.3763356"
         sodipodi:ry="1.7148783"
         sodipodi:rx="4.4803677"
         sodipodi:cy="1052.854"
         sodipodi:cx="-20.230246"
         sodipodi:type="arc"
         id="path4165-5"
         style="fill:#808080;fill-opacity:1;stroke:#000000;stroke-width:1.1416223;stroke-opacity:1" />
      <path
         inkscape:connector-curvature="0"
         id="path4161-3"
         d="m -20.051263,1048.7468 0,4.0178 -0.438845,-0.1176 0,-4.0788"
         style="fill:none;fill-rule:evenodd;stroke:#000000;stroke-width:1px;stroke-linecap:butt;stroke-linejoin:miter;stroke-opacity:1" />
      <path
         inkscape:connector-curvature="0"
         id="path4167-5"
         d="m -22.982748,1042.2384 c -1.511452,-2.9763 -2.736286,-5.4232 -2.721854,-5.4377 0.01443,-0.014 0.435251,0.1108 0.935153,0.2782 1.381529,0.4628 2.682787,0.672 4.534796,0.7293 2.383089,0.074 4.274889,-0.19 6.012574,-0.8378 0.458702,-0.171 0.85156,-0.2933 0.873018,-0.2719 0.04654,0.047 -6.727838,10.9033 -6.821105,10.9316 -0.03547,0.011 -1.30113,-2.4155 -2.812582,-5.3917 z"
         style="fill:#808080;fill-opacity:1;stroke:#000000;stroke-width:0.08928572;stroke-opacity:1" />
      <path
         transform="translate(0,1020.3622)"
         inkscape:connector-curvature="0"
         id="path4199"
         d="m -20.861962,33.384047 c 0.245536,-0.09646 0.546875,-0.221162 0.669643,-0.277107 0.122768,-0.05594 0.333706,-0.09234 0.46875,-0.08087 l 0.245536,0.02085 0,-0.810301 0,-0.8103 0.245536,0.0015 c 0.750828,0.0047 2.207739,0.452255 2.635826,0.809638 0.252757,0.211011 0.27035,0.2544 0.158031,0.389736 -0.447129,0.538758 -2.062418,0.941492 -3.753679,0.935891 l -1.116071,-0.0037 0.446428,-0.175389 z"
         style="fill:#ffffff;fill-opacity:1;stroke:#000000;stroke-width:0.08928572;stroke-opacity:1" />
      <path
         transform="translate(0,1020.3622)"
         inkscape:connector-curvature="0"
         id="path4201"
         d="m -23.731684,32.862302 c -0.378581,-0.231536 -0.433679,-0.345997 -0.259303,-0.53868 0.321509,-0.355264 1.993666,-0.897305 2.768118,-0.897305 0.204309,0 0.226979,0.03477 0.226979,0.348165 l 0,0.348165 -1.09375,0.403892 c -0.601563,0.22214 -1.154018,0.427152 -1.227679,0.455583 -0.07366,0.02843 -0.260125,-0.02549 -0.414365,-0.11982 z"
         style="fill:#ffffff;fill-opacity:1;stroke:#000000;stroke-width:0.08928572;stroke-opacity:1" />
      <path
         transform="translate(0,1020.3622)"
         inkscape:connector-curvature="0"
         id="path4203"
         d="m -20.253319,26.946656 c -0.163953,-0.205913 -5.296143,-10.254401 -5.296143,-10.369497 0,-0.01623 0.35135,0.08422 0.780777,0.223222 1.769828,0.572892 3.146646,0.733404 5.764885,0.67208 2.198808,-0.0515 3.024104,-0.181993 4.617,-0.730028 0.827551,-0.284719 1.138379,-0.322001 0.848141,-0.10173 -0.0711,0.05396 -0.925473,1.383828 -1.8986,2.955256 -2.151949,3.475018 -4.373463,7.007629 -4.573981,7.273463 -0.118918,0.157652 -0.16607,0.172696 -0.242079,0.07723 z"
         style="fill:#ffffff;fill-opacity:1;stroke:#000000;stroke-width:0.08928572;stroke-opacity:1" />
      <path
         transform="translate(0,1020.3622)"
         inkscape:connector-curvature="0"
         id="path4205"
         d="m -21.040533,16.371412 c -1.254684,-0.132763 -3.258929,-0.53521 -3.258929,-0.654384 0,-0.03119 1.101721,-0.551417 2.448269,-1.15606 l 2.448269,-1.09935 -0.17716,-0.414972 c -0.09744,-0.228235 -0.207102,-0.44546 -0.243698,-0.482723 -0.05488,-0.05588 -1.772876,0.656516 -2.385404,0.98915 -0.420952,0.228598 -3.470562,1.533958 -3.583666,1.533958 -0.06942,0 -0.305017,-0.123015 -0.523546,-0.273367 -0.30689,-0.211146 -0.478438,-0.434691 -0.753691,-0.982143 -0.196001,-0.389827 -0.396096,-0.708776 -0.444655,-0.708776 -0.185116,0 -0.0818,-0.600276 0.172276,-1.000907 0.628281,-0.990697 2.214478,-1.784232 4.547408,-2.2749571 1.017533,-0.214035 1.319862,-0.2378844 3.04917,-0.2405353 2.07227,-0.00318 2.918262,0.096968 4.420704,0.5233014 0.980074,0.278106 2.277324,0.902324 2.789747,1.342385 2.5455203,2.186059 -1.007346,4.779953 -6.71938,4.905717 -0.785714,0.0173 -1.589285,0.01445 -1.785714,-0.0063 z"
         style="fill:#ffffff;fill-opacity:1;stroke:#000000;stroke-width:0.08928572;stroke-opacity:1" />
    </g>
    <g
       id="g4207"
       transform="translate(-0.98214286,1.3392857)">
      <path
         d="m 5.2343745,1031.2306 a 8.5267859,3.9732144 0 0 1 0.23964,-5.6164 8.5267859,3.9732144 0 0 1 12.0532805,0.1087 8.5267859,3.9732144 0 0 1 -0.227018,5.6165 8.5267859,3.9732144 0 0 1 -12.053518,-0.1028 l 6.13717,-2.7583 z"
         sodipodi:end="2.3742412"
         sodipodi:start="2.3763356"
         sodipodi:ry="3.9732144"
         sodipodi:rx="8.5267859"
         sodipodi:cy="1028.4783"
         sodipodi:cx="11.383929"
         sodipodi:type="arc"
         id="path3336"
         style="fill:#808080;fill-opacity:1;stroke:#000000;stroke-opacity:1" />
      <path
         d="m 7.456175,1029.196 a 0.8035714,0.13392857 0 0 1 0.022584,-0.1893 0.8035714,0.13392857 0 0 1 1.1359112,0 0.8035714,0.13392857 0 0 1 -0.021394,0.1893 0.8035714,0.13392857 0 0 1 -1.1359336,-0 l 0.578372,-0.093 z"
         sodipodi:end="2.3742412"
         sodipodi:start="2.3763356"
         sodipodi:ry="0.13392857"
         sodipodi:rx="0.8035714"
         sodipodi:cy="1029.1033"
         sodipodi:cx="8.0357141"
         sodipodi:type="arc"
         id="path3338"
         style="fill:#808080;fill-opacity:1;stroke:none;stroke-opacity:1" />
      <path
         inkscape:connector-curvature="0"
         id="path4159"
         d="m 3.125,1028.88 7.678571,15.0893 9.375,-15"
         style="fill:none;fill-rule:evenodd;stroke:#000000;stroke-width:1px;stroke-linecap:butt;stroke-linejoin:miter;stroke-opacity:1" />
      <path
         d="m 7.5719011,1049.1752 a 4.4803677,1.7148783 0 0 1 0.125918,-2.4241 4.4803677,1.7148783 0 0 1 6.3333509,0.047 4.4803677,1.7148783 0 0 1 -0.119285,2.4241 4.4803677,1.7148783 0 0 1 -6.3334765,-0.044 l 3.2247535,-1.1905 z"
         sodipodi:end="2.3742412"
         sodipodi:start="2.3763356"
         sodipodi:ry="1.7148783"
         sodipodi:rx="4.4803677"
         sodipodi:cy="1047.9873"
         sodipodi:cx="10.803162"
         sodipodi:type="arc"
         id="path4165"
         style="fill:#808080;fill-opacity:1;stroke:#000000;stroke-width:1.1416223;stroke-opacity:1" />
      <path
         inkscape:connector-curvature="0"
         id="path4161"
         d="m 10.982143,1043.8801 0,4.0178 -0.438845,-0.1176 0,-4.0788"
         style="fill:none;fill-rule:evenodd;stroke:#000000;stroke-width:1px;stroke-linecap:butt;stroke-linejoin:miter;stroke-opacity:1" />
      <path
         transform="translate(0,1020.3622)"
         inkscape:connector-curvature="0"
         id="path4167"
         d="m 8.0506584,17.00948 c -1.5114519,-2.976259 -2.7362862,-5.423188 -2.721854,-5.43762 0.014432,-0.01443 0.4352508,0.11076 0.9351522,0.278206 1.3815293,0.462752 2.6827875,0.672004 4.5347964,0.72923 2.383089,0.07364 4.274889,-0.189955 6.012574,-0.837753 0.458702,-0.171001 0.85156,-0.293354 0.873018,-0.271896 0.04654,0.04654 -6.727838,10.903282 -6.821105,10.93162 -0.03547,0.01078 -1.3011297,-2.415528 -2.8125816,-5.391787 z"
         style="fill:#808080;fill-opacity:1;stroke:#000000;stroke-width:0.08928572;stroke-opacity:1" />
    </g>
  </g>
</svg>
