<?xml version="1.0" encoding="UTF-8" standalone="no"?>
<!-- Created with Inkscape (http://www.inkscape.org/) -->

<svg
   xmlns:dc="http://purl.org/dc/elements/1.1/"
   xmlns:cc="http://creativecommons.org/ns#"
   xmlns:rdf="http://www.w3.org/1999/02/22-rdf-syntax-ns#"
   xmlns:svg="http://www.w3.org/2000/svg"
   xmlns="http://www.w3.org/2000/svg"
   xmlns:xlink="http://www.w3.org/1999/xlink"
   xmlns:sodipodi="http://sodipodi.sourceforge.net/DTD/sodipodi-0.dtd"
   xmlns:inkscape="http://www.inkscape.org/namespaces/inkscape"
   width="32px"
   height="32px"
   id="svg3085"
   version="1.1"
   inkscape:version="0.91 r13725"
   sodipodi:docname="partsList.svg">
  <defs
     id="defs3087">
    <inkscape:path-effect
       effect="skeletal"
       id="path-effect3066"
       is_visible="true"
       pattern="M 0,0 0,10 10,5 z"
       copytype="single_stretched"
       prop_scale="1"
       scale_y_rel="false"
       spacing="0"
       normal_offset="0"
       tang_offset="0"
       prop_units="false"
       vertical_pattern="false"
       fuse_tolerance="0" />
    <linearGradient
       inkscape:collect="always"
       id="linearGradient7597">
      <stop
         style="stop-color:#000003;stop-opacity:1;"
         offset="0"
         id="stop7599" />
      <stop
         style="stop-color:#000003;stop-opacity:0;"
         offset="1"
         id="stop7601" />
    </linearGradient>
    <marker
       inkscape:stockid="Arrow1Lstart"
       orient="auto"
       refY="0.0"
       refX="0.0"
       id="Arrow1Lstart"
       style="overflow:visible">
      <path
         id="path3995"
         d="M 0.0,0.0 L 5.0,-5.0 L -12.5,0.0 L 5.0,5.0 L 0.0,0.0 z "
         style="fill-rule:evenodd;stroke:#000000;stroke-width:1.0pt"
         transform="scale(0.8) translate(12.5,0)" />
    </marker>
    <marker
       inkscape:stockid="Arrow1Send"
       orient="auto"
       refY="0.0"
       refX="0.0"
       id="Arrow1Send"
       style="overflow:visible;">
      <path
         id="path4010"
         d="M 0.0,0.0 L 5.0,-5.0 L -12.5,0.0 L 5.0,5.0 L 0.0,0.0 z "
         style="fill-rule:evenodd;stroke:#000000;stroke-width:1.0pt;"
         transform="scale(0.2) rotate(180) translate(6,0)" />
    </marker>
    <marker
       inkscape:stockid="Arrow1Sstart"
       orient="auto"
       refY="0.0"
       refX="0.0"
       id="Arrow1Sstart"
       style="overflow:visible">
      <path
         id="path4007"
         d="M 0.0,0.0 L 5.0,-5.0 L -12.5,0.0 L 5.0,5.0 L 0.0,0.0 z "
         style="fill-rule:evenodd;stroke:#000000;stroke-width:1.0pt"
         transform="scale(0.2) translate(6,0)" />
    </marker>
    <marker
       inkscape:stockid="Arrow2Sstart"
       orient="auto"
       refY="0.0"
       refX="0.0"
       id="Arrow2Sstart"
       style="overflow:visible">
      <path
         id="path4025"
         style="fill-rule:evenodd;stroke-width:0.62500000;stroke-linejoin:round"
         d="M 8.7185878,4.0337352 L -2.2072895,0.016013256 L 8.7185884,-4.0017078 C 6.9730900,-1.6296469 6.9831476,1.6157441 8.7185878,4.0337352 z "
         transform="scale(0.3) translate(-2.3,0)" />
    </marker>
    <marker
       inkscape:stockid="TriangleOutL"
       orient="auto"
       refY="0.0"
       refX="0.0"
       id="TriangleOutL"
       style="overflow:visible">
      <path
         id="path4137"
         d="M 5.77,0.0 L -2.88,5.0 L -2.88,-5.0 L 5.77,0.0 z "
         style="fill-rule:evenodd;stroke:#000000;stroke-width:1.0pt"
         transform="scale(0.8)" />
    </marker>
    <marker
       inkscape:stockid="DiamondLend"
       orient="auto"
       refY="0.0"
       refX="0.0"
       id="DiamondLend"
       style="overflow:visible">
      <path
         id="path4092"
         d="M 0,-7.0710768 L -7.0710894,0 L 0,7.0710589 L 7.0710462,0 L 0,-7.0710768 z "
         style="fill-rule:evenodd;stroke:#000000;stroke-width:1.0pt"
         transform="scale(0.8) translate(-7,0)" />
    </marker>
    <marker
       inkscape:stockid="DiamondLstart"
       orient="auto"
       refY="0.0"
       refX="0.0"
       id="DiamondLstart"
       style="overflow:visible">
      <path
         id="path4083"
         d="M 0,-7.0710768 L -7.0710894,0 L 0,7.0710589 L 7.0710462,0 L 0,-7.0710768 z "
         style="fill-rule:evenodd;stroke:#000000;stroke-width:1.0pt"
         transform="scale(0.8) translate(7,0)" />
    </marker>
    <marker
       inkscape:stockid="Arrow1Lend"
       orient="auto"
       refY="0.0"
       refX="0.0"
       id="Arrow1Lend"
       style="overflow:visible;">
      <path
         id="path3998"
         d="M 0.0,0.0 L 5.0,-5.0 L -12.5,0.0 L 5.0,5.0 L 0.0,0.0 z "
         style="fill-rule:evenodd;stroke:#000000;stroke-width:1.0pt;"
         transform="scale(0.8) rotate(180) translate(12.5,0)" />
    </marker>
    <linearGradient
       id="linearGradient3893">
      <stop
         style="stop-color:#ffffff;stop-opacity:1;"
         offset="0"
         id="stop3895" />
      <stop
         style="stop-color:#ffffff;stop-opacity:0;"
         offset="1"
         id="stop3897" />
    </linearGradient>
    <linearGradient
       inkscape:collect="always"
       xlink:href="#linearGradient7597"
       id="linearGradient7603"
       x1="15.71482"
       y1="22.299378"
       x2="34.136209"
       y2="22.299378"
       gradientUnits="userSpaceOnUse" />
  </defs>
  <sodipodi:namedview
     id="base"
     pagecolor="#ffffff"
     bordercolor="#666666"
     borderopacity="1.0"
     inkscape:pageopacity="0.0"
     inkscape:pageshadow="2"
     inkscape:zoom="22.627417"
     inkscape:cx="16.395917"
     inkscape:cy="9.4412571"
     inkscape:current-layer="layer1"
     showgrid="true"
     inkscape:grid-bbox="true"
     inkscape:document-units="px"
     inkscape:window-width="3840"
     inkscape:window-height="2094"
     inkscape:window-x="0"
     inkscape:window-y="0"
     inkscape:window-maximized="1" />
  <metadata
     id="metadata3090">
    <rdf:RDF>
      <cc:Work
         rdf:about="">
        <dc:format>image/svg+xml</dc:format>
        <dc:type
           rdf:resource="http://purl.org/dc/dcmitype/StillImage" />
        <dc:title />
      </cc:Work>
    </rdf:RDF>
  </metadata>
  <g
     id="layer1"
     inkscape:label="Layer 1"
     inkscape:groupmode="layer">
    <rect
       style="fill:#000000;fill-opacity:1;stroke:#000000;stroke-width:0.11415751000000000;stroke-linecap:butt;stroke-miterlimit:4;stroke-opacity:1;stroke-dasharray:none"
       id="rect3018"
       width="1.2970899"
       height="32.02499"
       x="0.058561768"
       y="0.011311022" />
    <rect
       style="fill:#000000;fill-opacity:1;stroke:#000000;stroke-width:0.11415751000000000;stroke-linecap:butt;stroke-miterlimit:4;stroke-opacity:1;stroke-dasharray:none"
       id="rect3018-5"
       width="1.2970899"
       height="32.02499"
       x="30.72147"
       y="0.021291591" />
    <text
       xml:space="preserve"
       style="font-size:8px;font-style:normal;font-weight:bold;line-height:125%;letter-spacing:0px;word-spacing:0px;fill:#000000;fill-opacity:1;stroke:none;font-family:Sans;-inkscape-font-specification:Sans Bold"
       x="4.0273438"
       y="9.2841949"
       id="text3013"
       sodipodi:linespacing="125%"><tspan
         sodipodi:role="line"
         id="tspan3015"
         x="4.0273438"
         y="9.2841949">Parts</tspan></text>
    <text
       xml:space="preserve"
       style="font-size:8px;font-style:normal;font-weight:bold;line-height:125%;letter-spacing:0px;word-spacing:0px;fill:#000000;fill-opacity:1;stroke:none;font-family:Sans;-inkscape-font-specification:Sans Bold"
       x="7.5078125"
       y="20.221827"
       id="text3017"
       sodipodi:linespacing="125%"><tspan
         sodipodi:role="line"
         id="tspan3019"
         x="7.5078125"
         y="20.221827">List</tspan></text>
    <rect
       style="fill:#000000;fill-opacity:1;stroke:#000000;stroke-width:0.11415751;stroke-linecap:butt;stroke-miterlimit:4;stroke-opacity:1;stroke-dasharray:none"
       id="rect3018-3"
       width="1.2970899"
       height="32.02499"
       x="-0.026408914"
       y="-32.054981"
       transform="matrix(0,1,-1,0,0,0)" />
    <rect
       style="fill:#000000;fill-opacity:1;stroke:#000000;stroke-width:0.11415751;stroke-linecap:butt;stroke-miterlimit:4;stroke-opacity:1;stroke-dasharray:none"
       id="rect3018-3-6"
       width="1.2970899"
       height="32.02499"
       x="11.354873"
       y="-31.978708"
       transform="matrix(0,1,-1,0,0,0)" />
    <rect
       style="fill:#000000;fill-opacity:1;stroke:#000000;stroke-width:0.11415751;stroke-linecap:butt;stroke-miterlimit:4;stroke-opacity:1;stroke-dasharray:none"
       id="rect3018-3-6-9"
       width="1.2970899"
       height="32.02499"
       x="22.061981"
       y="-31.934517"
       transform="matrix(0,1,-1,0,0,0)" />
    <rect
       style="fill:#000000;fill-opacity:1;stroke:#000000;stroke-width:0.11415751;stroke-linecap:butt;stroke-miterlimit:4;stroke-opacity:1;stroke-dasharray:none"
       id="rect3018-3-6-9-2"
       width="1.2970899"
       height="32.02499"
       x="30.636494"
       y="-31.934515"
       transform="matrix(0,1,-1,0,0,0)" />
    <text
       xml:space="preserve"
       style="font-size:8px;font-style:normal;font-weight:bold;line-height:125%;letter-spacing:0px;word-spacing:0px;fill:#000000;fill-opacity:1;stroke:none;font-family:Sans;-inkscape-font-specification:Sans Bold"
       x="11.433594"
       y="27.713165"
       id="text3100"
       sodipodi:linespacing="125%"><tspan
         sodipodi:role="line"
         id="tspan3102"
         x="11.433594"
         y="27.713165">...</tspan></text>
    <path
       style="fill:#ffffff;fill-opacity:1"
       d="m 1.4229313,27.000257 0,-3.557631 14.6061747,0 14.606174,0 0,3.557631 0,3.557631 -14.606174,0 -14.6061747,0 0,-3.557631 z m 12.2417857,-0.04419 0,-0.773398 -0.707106,0 -0.707107,0 0,0.773398 0,0.773398 0.707107,0 0.707106,0 0,-0.773398 z m 3.049398,0 0,-0.773398 -0.729203,0 -0.729204,0 0,0.773398 0,0.773398 0.729204,0 0.729203,0 0,-0.773398 z m 3.049398,0 0,-0.773398 -0.729203,0 -0.729204,0 0,0.773398 0,0.773398 0.729204,0 0.729203,0 0,-0.773398 z"
       id="path3369"
       inkscape:connector-curvature="0" />
    <path
       style="fill:#ffffff;fill-opacity:1"
       d="m 1.4229313,17.365927 0,-4.618291 14.6061747,0 14.606174,0 0,4.618291 0,4.618292 -14.606174,0 -14.6061747,0 0,-4.618292 z m 17.0327217,2.918992 c 0.421963,-0.08073 0.673577,-0.191485 0.900216,-0.39624 0.278278,-0.251408 0.380647,-0.506223 0.383199,-0.953858 0.0051,-0.90083 -0.400147,-1.238249 -1.721224,-1.433011 -0.828035,-0.122075 -0.994369,-0.193715 -0.994369,-0.428273 0,-0.43122 0.951856,-0.506431 1.995858,-0.157701 l 0.437337,0.146085 -0.01231,-0.55233 -0.01231,-0.55233 -0.353553,-0.07779 c -1.377725,-0.303128 -2.608815,-0.156041 -3.046376,0.363971 -0.203218,0.241511 -0.26032,0.427305 -0.264406,0.860302 -0.0034,0.362919 0.0088,0.425469 0.130062,0.662913 0.221885,0.434643 0.594203,0.610243 1.622691,0.76533 0.300692,0.04534 0.6099,0.115114 0.687129,0.155051 0.259424,0.134153 0.227734,0.457701 -0.05878,0.60017 -0.335139,0.166646 -1.366517,0.07725 -1.987132,-0.17223 l -0.309359,-0.12436 -0.01246,0.530485 c -0.0069,0.291767 -0.0038,0.539132 0.0068,0.549699 0.01057,0.01057 0.132214,0.04872 0.270324,0.08479 0.718728,0.187686 1.738847,0.244097 2.338699,0.129326 z m -6.038138,-0.631943 0.01233,-0.585573 -1.327108,0 -1.3271079,0 0,-2.342291 0,-2.342291 -0.773398,0 -0.7733981,0 0,2.939345 0,2.939345 2.088175,-0.01148 2.088174,-0.01148 0.01233,-0.585573 z m 2.263668,-1.602039 0,-2.209709 -0.707106,0 -0.707107,0 0,2.209709 0,2.209709 0.707107,0 0.707106,0 0,-2.209709 z m 8.971418,1.682983 0,-0.526726 -0.551324,-0.01465 c -0.797722,-0.0212 -0.748772,0.06026 -0.766344,-1.275332 l -0.01394,-1.059516 0.732095,0 0.732095,0 0,-0.508233 0,-0.508233 -0.729204,0 -0.729204,0 0,-0.618718 0,-0.618718 -0.707106,0 -0.707107,0 0,0.618718 0,0.618718 -0.353553,0 -0.353554,0 0,0.508233 0,0.508233 0.353554,0 0.353553,0 0,1.144394 c 0,1.286643 0.04657,1.567063 0.307553,1.852082 0.279767,0.305529 0.657866,0.39172 1.758525,0.400872 l 0.673961,0.0056 0,-0.526726 z m -8.971418,-5.019643 0,-0.596621 -0.707106,0 -0.707107,0 0,0.596621 0,0.596621 0.707107,0 0.707106,0 0,-0.596621 z"
       id="path3371"
       inkscape:connector-curvature="0" />
    <path
       style="fill:#ffffff;fill-opacity:1"
       d="m 1.4229313,6.317384 0,-4.9718445 14.6061747,0 14.606174,0 0,4.9718445 0,4.971845 -14.606174,0 -14.6061747,0 0,-4.971845 z M 11.863947,9.3881632 c 0.390672,-0.056495 0.669816,-0.1914916 0.927935,-0.4487587 l 0.209923,-0.2092289 0,0.2851576 0,0.2851576 0.732664,0 0.732663,0 -0.01752,-1.5578447 C 14.430275,6.0225793 14.417587,5.9314827 14.139393,5.515218 13.963566,5.2521269 13.661838,5.0447473 13.273673,4.9202033 12.726174,4.7445366 11.493602,4.7635103 10.571125,4.9618053 l -0.154679,0.03325 -0.01236,0.5598735 -0.01236,0.5598733 0.239153,-0.1057646 c 0.728791,-0.3223061 1.933376,-0.3256256 2.233503,-0.00615 0.05526,0.058817 0.11107,0.1860018 0.12403,0.2826332 l 0.02357,0.1756931 -0.833732,0.021183 c -0.747664,0.018995 -0.87072,0.033236 -1.192036,0.1379432 -0.423185,0.1379031 -0.705355,0.360602 -0.860921,0.6794687 -0.0862,0.1766803 -0.103157,0.2823963 -0.104727,0.6527652 -0.0016,0.3804614 0.013,0.4721617 0.105044,0.6591729 0.197598,0.4014713 0.535197,0.6530776 1.020034,0.7602131 0.306652,0.067762 0.354359,0.068838 0.718298,0.016209 z M 26.119203,9.3175519 C 26.63164,9.1849398 26.993813,8.928717 27.130191,8.6023187 27.30485,8.1843015 27.279779,7.5876877 27.072667,7.2334263 26.867068,6.8817542 26.435823,6.6990308 25.471549,6.5550148 25.139564,6.505432 24.798335,6.4316812 24.713261,6.3911242 c -0.137651,-0.065622 -0.15468,-0.092676 -0.15468,-0.2457474 0,-0.2638861 0.150169,-0.3541673 0.621934,-0.3739066 0.448498,-0.018766 0.837562,0.043443 1.35827,0.2171781 0.214067,0.071424 0.398026,0.1298619 0.408796,0.1298619 0.01077,0 0.01958,-0.2457156 0.01958,-0.5460343 l 0,-0.5460344 -0.342505,-0.072633 C 26.073135,4.836849 25.694157,4.794443 25.199397,4.7943278 c -1.378417,-3.226e-4 -2.0021,0.4885257 -1.934949,1.5166246 0.05115,0.7831911 0.503343,1.1072007 1.801492,1.2908363 0.279047,0.039474 0.563297,0.1006973 0.631666,0.1360522 0.266685,0.1379084 0.239088,0.437213 -0.05627,0.6102455 -0.3149,0.184482 -1.416278,0.077156 -2.065934,-0.2013181 -0.107414,-0.046043 -0.214148,-0.083714 -0.237188,-0.083714 -0.02478,0 -0.03682,0.2200264 -0.02948,0.5386315 l 0.01241,0.538632 0.30684,0.077368 c 0.168762,0.042552 0.477017,0.098642 0.68501,0.124643 0.207993,0.026001 0.437832,0.055263 0.510752,0.065025 0.239232,0.032028 1.038885,-0.023404 1.295457,-0.089802 z M 6.2842904,8.2840248 l 0,-1.016466 0.7442316,0 c 0.820738,0 1.209511,-0.067975 1.6418834,-0.2870743 C 9.3311653,6.6456522 9.6735628,5.8962299 9.5532768,5.0481024 9.4427362,4.2686913 8.9835021,3.7675729 8.1625428,3.530527 7.939946,3.4662538 7.6437429,3.4508362 6.317436,3.4344882 l -1.5799417,-0.019475 0,2.9427386 0,2.9427385 0.773398,0 0.7733981,0 0,-1.016466 z M 17.156057,8.2030071 c 0,-0.6590871 0.02057,-1.1998877 0.05148,-1.3538421 0.136407,-0.6792203 0.689086,-1.0186501 1.384827,-0.8504974 0.145841,0.035248 0.300513,0.078969 0.343716,0.097158 0.07354,0.03096 0.07777,-0.00887 0.06629,-0.6239866 l -0.01226,-0.6570571 -0.441941,0 c -0.392849,0 -0.469481,0.013524 -0.689848,0.1217461 -0.138836,0.068182 -0.34786,0.2274314 -0.475088,0.3619565 l -0.227181,0.2402103 0,-0.3288108 0,-0.3288108 -0.707107,0 -0.707106,0 0,2.2097087 0,2.2097087 0.707106,0 0.707107,0 0,-1.0974837 z m 5.391689,0.5892507 0,-0.508233 -0.342505,-0.00263 c -0.502577,-0.00387 -0.764534,-0.056712 -0.858921,-0.1732739 -0.07237,-0.089371 -0.0802,-0.2000529 -0.0802,-1.1327161 l 0,-1.0336673 0.707107,0 0.707107,0 0,-0.53033 0,-0.5303301 -0.707107,0 -0.707107,0 0,-0.6187185 0,-0.6187184 -0.729204,0 -0.729203,0 0,0.6187184 0,0.6187185 -0.353554,0 -0.353553,0 0,0.5303301 0,0.53033 0.353553,0 0.353554,0 0,1.0546282 c 0,1.1311118 0.03165,1.4181923 0.190635,1.7292004 0.228062,0.4461349 0.599049,0.5678956 1.74286,0.5720202 l 0.806543,0.00291 0,-0.508233 z"
       id="path3373"
       inkscape:connector-curvature="0" />
    <path
       style="fill:#ffffff;fill-opacity:1"
       d="m 6.2842904,5.3724349 0,-0.8007207 0.5237353,0 c 0.5882447,0 0.7620882,0.041783 0.9637654,0.2316391 0.2499922,0.2353392 0.2907934,0.7148274 0.086406,1.0154223 C 7.6895473,6.0668098 7.4826438,6.1358185 6.848381,6.1555803 l -0.5640906,0.017575 0,-0.8007208 z"
       id="path3375"
       inkscape:connector-curvature="0" />
    <path
       style="fill:#ffffff;fill-opacity:1"
       d="M 11.823275,8.4123074 C 11.48911,8.3155617 11.339256,7.8685764 11.550817,7.5996196 11.705969,7.4023768 11.881121,7.3559471 12.470055,7.3559471 l 0.53175,0 -2.48e-4,0.1436311 c -7.16e-4,0.4175365 -0.294436,0.8141335 -0.673669,0.9096255 -0.234672,0.059091 -0.309638,0.059552 -0.504614,0.0031 l 1e-6,0 z"
       id="path3377"
       inkscape:connector-curvature="0" />
  </g>
</svg>
