<?xml version="1.0" encoding="UTF-8" standalone="no"?>
<!-- Created with Inkscape (http://www.inkscape.org/) -->

<svg
   xmlns:dc="http://purl.org/dc/elements/1.1/"
   xmlns:cc="http://creativecommons.org/ns#"
   xmlns:rdf="http://www.w3.org/1999/02/22-rdf-syntax-ns#"
   xmlns:svg="http://www.w3.org/2000/svg"
   xmlns="http://www.w3.org/2000/svg"
   xmlns:sodipodi="http://sodipodi.sourceforge.net/DTD/sodipodi-0.dtd"
   xmlns:inkscape="http://www.inkscape.org/namespaces/inkscape"
   width="48"
   height="48"
   viewBox="0 0 48 48.000001"
   id="svg2"
   version="1.1"
   inkscape:version="0.91 r13725"
   sodipodi:docname="a3_EditPart.svg">
  <defs
     id="defs4" />
  <sodipodi:namedview
     id="base"
     pagecolor="#ffffff"
     bordercolor="#666666"
     borderopacity="1.0"
     inkscape:pageopacity="0.0"
     inkscape:pageshadow="2"
     inkscape:zoom="7.9195959"
     inkscape:cx="34.973813"
     inkscape:cy="24.565115"
     inkscape:document-units="px"
     inkscape:current-layer="layer1"
     showgrid="false"
     units="px"
     inkscape:window-width="1012"
     inkscape:window-height="898"
     inkscape:window-x="592"
     inkscape:window-y="498"
     inkscape:window-maximized="0" />
  <metadata
     id="metadata7">
    <rdf:RDF>
      <cc:Work
         rdf:about="">
        <dc:format>image/svg+xml</dc:format>
        <dc:type
           rdf:resource="http://purl.org/dc/dcmitype/StillImage" />
        <dc:title></dc:title>
      </cc:Work>
    </rdf:RDF>
  </metadata>
  <g
     inkscape:label="Ebene 1"
     inkscape:groupmode="layer"
     id="layer1"
     transform="translate(0,-1004.3622)">
    <rect
       style="color:#000000;clip-rule:nonzero;display:inline;overflow:visible;visibility:visible;opacity:1;isolation:auto;mix-blend-mode:normal;color-interpolation:sRGB;color-interpolation-filters:linearRGB;solid-color:#000000;solid-opacity:1;fill:#ffff3e;fill-opacity:1;fill-rule:nonzero;stroke:#000000;stroke-width:1.45677078;stroke-linecap:butt;stroke-linejoin:miter;stroke-miterlimit:4;stroke-dasharray:none;stroke-dashoffset:0;stroke-opacity:1;color-rendering:auto;image-rendering:optimizeSpeed;shape-rendering:auto;text-rendering:auto;enable-background:accumulate"
       id="rect3336"
       width="42.600983"
       height="35.277378"
       x="0.60719252"
       y="1016.6039" />
    <path
       style="fill:none;fill-rule:evenodd;stroke:#000000;stroke-width:1px;stroke-linecap:butt;stroke-linejoin:miter;stroke-opacity:1"
       d="m 29.7995,1006.6528 -17.046324,28.4105 -1.262691,9.3439 9.47018,-5.9346 15.657365,-27.9055 z"
       id="path3355"
       inkscape:connector-curvature="0" />
    <path
       style="fill:#ff9955;fill-rule:evenodd;stroke:#000000;stroke-width:1px;stroke-linecap:butt;stroke-linejoin:miter;stroke-opacity:1"
       d="m 13.131983,1034.8108 7.828682,3.5355"
       id="path4157"
       inkscape:connector-curvature="0" />
    <path
       style="fill:#552200;fill-opacity:1;stroke:#f30909;stroke-width:0.12626907;stroke-opacity:1"
       d="m 12.240906,38.600091 c 0.03795,-0.194614 0.281411,-1.955589 0.541025,-3.913277 0.259614,-1.957688 0.503631,-3.544893 0.542262,-3.527121 0.03863,0.01777 1.504969,0.678361 3.25853,1.467977 1.753562,0.789617 3.188294,1.46808 3.188294,1.507697 0,0.0617 -1.20487,0.82724 -6.728809,4.275321 l -0.870302,0.543248 0.069,-0.353845 z"
       id="path4159"
       inkscape:connector-curvature="0"
       transform="translate(0,1004.3622)" />
    <path
       style="fill:#2b1100;fill-opacity:1;stroke:#f30909;stroke-width:0.12626907;stroke-opacity:1"
       d="m 17.212142,31.697738 c -1.858793,-0.842991 -3.364552,-1.596123 -3.34613,-1.673624 0.01842,-0.0775 2.306089,-3.92713 5.083705,-8.554729 l 5.050211,-8.413817 4.077171,0 c 3.846878,0 4.07005,0.01248 3.951075,0.22097 -0.06935,0.121534 -2.614095,4.648611 -5.654983,10.060171 -3.040888,5.411559 -5.585708,9.851472 -5.655156,9.86647 -0.06945,0.015 -1.6471,-0.662449 -3.505893,-1.505441 z"
       id="path4165"
       inkscape:connector-curvature="0"
       transform="translate(0,1004.3622)" />
    <path
       style="fill:#2b1100;fill-opacity:1;stroke:#f30909;stroke-width:0.12626907;stroke-opacity:1"
       d="m 25.074318,11.341058 c 0,-0.104565 4.671072,-7.906956 4.84706,-8.0963549 0.107328,-0.1155074 0.811618,0.2330196 2.978363,1.4738826 1.560787,0.8938398 2.850881,1.6721797 2.866876,1.7296441 0.016,0.057464 -0.580302,1.1840812 -1.325104,2.503593 l -1.354186,2.3991122 -4.006505,0.03334 c -2.203577,0.01834 -4.006504,-0.0011 -4.006504,-0.04322 z"
       id="path4167"
       inkscape:connector-curvature="0"
       transform="translate(0,1004.3622)" />
    <path
       style="fill:#e3dbdb;fill-opacity:1;stroke:#f30909;stroke-width:0.12626907;stroke-opacity:1"
       d="m 12.368844,38.352068 c 0.03996,-0.197098 0.276078,-1.834195 0.524712,-3.637994 0.248633,-1.803799 0.477026,-3.304599 0.507539,-3.335113 0.03051,-0.03051 1.282732,0.507775 2.782708,1.196195 1.499976,0.68842 2.863904,1.305258 3.030952,1.37075 0.361764,0.141832 0.376706,0.214948 0.08275,0.404936 -0.940764,0.608034 -6.527701,4.106114 -6.736703,4.217968 -0.245127,0.131188 -0.259263,0.115227 -0.191961,-0.216742 z"
       id="path4169"
       inkscape:connector-curvature="0"
       transform="translate(0,1004.3622)" />
  </g>
</svg>
