<?xml version="1.0" encoding="UTF-8" standalone="no"?>
<!-- Created with Inkscape (http://www.inkscape.org/) -->

<svg
   width="64"
   height="64"
   id="svg3559"
   version="1.1"
   inkscape:version="1.1.2 (0a00cf5339, 2022-02-04)"
   sodipodi:docname="a2p_Isolate_Element.svg"
   viewBox="0 0 64 64"
   xmlns:inkscape="http://www.inkscape.org/namespaces/inkscape"
   xmlns:sodipodi="http://sodipodi.sourceforge.net/DTD/sodipodi-0.dtd"
   xmlns:xlink="http://www.w3.org/1999/xlink"
   xmlns="http://www.w3.org/2000/svg"
   xmlns:svg="http://www.w3.org/2000/svg"
   xmlns:rdf="http://www.w3.org/1999/02/22-rdf-syntax-ns#"
   xmlns:cc="http://creativecommons.org/ns#"
   xmlns:dc="http://purl.org/dc/elements/1.1/">
  <defs
     id="defs3561">
    <linearGradient
       id="linearGradient4383-3"
       inkscape:collect="always">
      <stop
         id="stop73188"
         offset="0"
         style="stop-color:#3465a4;stop-opacity:1" />
      <stop
         id="stop73190"
         offset="1"
         style="stop-color:#729fcf;stop-opacity:1" />
    </linearGradient>
    <linearGradient
       inkscape:collect="always"
       xlink:href="#linearGradient4383-3"
       id="linearGradient4389-0"
       x1="27.243532"
       y1="54.588112"
       x2="21.243532"
       y2="30.588112"
       gradientUnits="userSpaceOnUse"
       gradientTransform="translate(-1.243533,-2.588112)" />
    <linearGradient
       inkscape:collect="always"
       xlink:href="#linearGradient4393-9"
       id="linearGradient4399-7"
       x1="48.714352"
       y1="45.585785"
       x2="40.714352"
       y2="24.585787"
       gradientUnits="userSpaceOnUse"
       gradientTransform="translate(1.2856487,1.4142136)" />
    <linearGradient
       inkscape:collect="always"
       id="linearGradient4393-9">
      <stop
         style="stop-color:#204a87;stop-opacity:1"
         offset="0"
         id="stop4395-8" />
      <stop
         style="stop-color:#3465a4;stop-opacity:1"
         offset="1"
         id="stop4397-1" />
    </linearGradient>
    <linearGradient
       id="linearGradient5058">
      <stop
         id="stop5060"
         offset="0"
         style="stop-color:#888a85;stop-opacity:1;" />
      <stop
         id="stop5066"
         offset="0.5"
         style="stop-color:#eeeeec;stop-opacity:1;" />
      <stop
         id="stop3430"
         offset="1"
         style="stop-color:#888a85;stop-opacity:1;" />
    </linearGradient>
    <linearGradient
       id="linearGradient3414">
      <stop
         id="stop3416"
         offset="0"
         style="stop-color:#eeeeec;stop-opacity:1;" />
      <stop
         id="stop3418"
         offset="0.5"
         style="stop-color:#ef2929;stop-opacity:1;" />
      <stop
         id="stop3420"
         offset="1"
         style="stop-color:#a40000;stop-opacity:1;" />
    </linearGradient>
  </defs>
  <sodipodi:namedview
     id="base"
     pagecolor="#ffffff"
     bordercolor="#666666"
     borderopacity="1.0"
     inkscape:pageopacity="0.0"
     inkscape:pageshadow="2"
     inkscape:zoom="6.257462"
     inkscape:cx="30.603462"
     inkscape:cy="31.881936"
     inkscape:current-layer="layer1"
     showgrid="true"
     inkscape:document-units="px"
     inkscape:grid-bbox="true"
     inkscape:window-width="1440"
     inkscape:window-height="843"
     inkscape:window-x="0"
     inkscape:window-y="0"
     inkscape:window-maximized="1"
     inkscape:snap-global="false"
     inkscape:snap-nodes="false"
     inkscape:snap-others="false"
     inkscape:pagecheckerboard="0">
    <inkscape:grid
       type="xygrid"
       id="grid3007"
       empspacing="4"
       visible="true"
       enabled="true"
       snapvisiblegridlinesonly="true"
       spacingx="0.5"
       spacingy="0.5" />
  </sodipodi:namedview>
  <metadata
     id="metadata3564">
    <rdf:RDF>
      <cc:Work
         rdf:about="">
        <dc:format>image/svg+xml</dc:format>
        <dc:type
           rdf:resource="http://purl.org/dc/dcmitype/StillImage" />
        <dc:title>Path-Stock</dc:title>
        <dc:date>2015-07-04</dc:date>
        <dc:relation>http://www.freecadweb.org/wiki/index.php?title=Artwork</dc:relation>
        <dc:publisher>
          <cc:Agent>
            <dc:title>FreeCAD</dc:title>
          </cc:Agent>
        </dc:publisher>
        <dc:identifier>FreeCAD/src/Mod/Path/Gui/Resources/icons/Path-Stock.svg</dc:identifier>
        <dc:rights>
          <cc:Agent>
            <dc:title>FreeCAD LGPL2+</dc:title>
          </cc:Agent>
        </dc:rights>
        <cc:license>https://www.gnu.org/copyleft/lesser.html</cc:license>
        <dc:contributor>
          <cc:Agent>
            <dc:title>[agryson] Alexander Gryson</dc:title>
          </cc:Agent>
        </dc:contributor>
      </cc:Work>
    </rdf:RDF>
  </metadata>
  <g
     id="layer1"
     inkscape:label="Layer 1"
     inkscape:groupmode="layer">
    <g
       id="g685"
       transform="translate(-0.00545247,0.01136021)">
      <g
         id="g1001">
        <path
           d="M 34.38968,12.296249 26.133143,9.1276952 c 0,0 0.698213,-1.61097 1.413433,-2.147553 0.715222,-0.536585 1.280251,-0.692294 1.309743,-1.246019 0.02949,-0.553729 -0.32632,-1.886354 -2.147541,-2.536291 -1.821175,-0.649947 -3.878365,-0.701376 -4.252944,0.408176 -0.374579,1.109555 0.564174,1.602571 0.339789,2.33125 -0.224388,0.728681 -0.534601,1.675005 -0.534601,1.675005 L 12.269135,3.5761202 9.138384,11.834795 c 0,0 -0.894049,-0.287095 -1.3983,-0.924099 C 7.23583,10.273693 6.805774,9.2888832 5.868817,9.1106092 4.931859,8.9323332 2.981092,10.367131 2.627968,11.422274 c -0.353124,1.055144 -0.505964,2.879556 0.128818,3.504837 0.634782,0.625281 2.438949,0.200839 3.354451,0.433524 0.915504,0.232684 1.406336,0.424782 1.406336,0.424782 l -3.992574,9.80561 9.78357,3.766191 c 0,0 0.06975,0.780993 -0.709836,1.480805 -0.779588,0.699814 -1.268626,0.822458 -1.590464,1.638618 -0.321835,0.816157 1.103304,2.630067 2.172588,3.111358 1.069283,0.481296 3.868534,0.885952 4.190371,0.0698 0.321838,-0.816158 -0.67684,-2.274741 -0.345171,-3.275473 0.331668,-1.000734 0.481857,-1.381606 0.481857,-1.381606 l 8.180545,3.201619 3.807507,-9.815236 c 0,0 0.09565,-0.402216 -1.090739,-0.426881 -1.186392,-0.02466 -1.9329,0.750905 -2.741124,0.246167 -0.808224,-0.504738 -1.395649,-2.367637 -0.999615,-3.531602 0.396034,-1.163964 2.1331,-3.812936 3.12639,-3.298575 0.993291,0.514358 0.574005,1.417992 1.633458,2.08386 1.059453,0.66587 1.713895,0.922 1.713895,0.922 z"
           id="path4243"
           style="fill:#a40000;fill-opacity:1;fill-rule:evenodd;stroke:#000000;stroke-width:0.892755;stroke-linecap:butt;stroke-linejoin:miter;stroke-miterlimit:4;stroke-dasharray:none;stroke-opacity:1"
           inkscape:connector-curvature="0" />
        <g
           style="fill:none;stroke:#ef2929"
           transform="matrix(-0.98480775,0.17364818,0.17364818,0.98480775,71.794653,-25.904592)"
           id="g6428">
          <path
             sodipodi:nodetypes="ccccccccccccccccccccccccccccccc"
             inkscape:connector-curvature="0"
             style="opacity:0.702479;fill:none;stroke:#ef2929;stroke-width:0.892755;stroke-linecap:butt;stroke-linejoin:miter;stroke-miterlimit:4;stroke-dasharray:none;stroke-opacity:1"
             id="path10128"
             d="m 49.46136,21.833061 c -0.501679,0.36803 -1.034472,0.929969 -0.939183,1.601319 1.483535,0.578772 2.681021,1.765111 3.442057,3.12043 0.0071,0.895643 -1.183691,0.993325 -1.72099,1.492406 -1.893568,1.139889 -3.78909,2.276538 -5.686117,3.410693 1.228831,1.917006 2.42088,3.988681 3.672462,5.810015 0.736001,-0.46743 1.110813,-1.264121 1.205023,-2.084526 0.481091,-1.20861 2.199118,-1.565968 3.113974,-0.636179 1.952322,1.228595 3.576857,3.551312 2.911615,5.931087 -0.262404,1.281288 -1.521758,2.377065 -2.868733,2.059507 -0.468221,-0.03758 -1.594172,-0.315659 -0.838535,0.446 L 56,50 63.531919,45.407209 c 0.946864,1.436893 1.89452,3.156361 1.335225,4.900393 -0.184086,0.596948 0.590897,0.145642 0.881688,0.191656 1.523747,-0.274369 3.139728,-1.378065 3.289379,-3.02897 -0.655784,-1.003292 -2.19622,-1.060136 -2.654642,-2.272619 -0.444192,-0.733357 -0.122918,-1.768917 0.73835,-2.017489 2.597812,-1.454879 5.106125,-3.060395 7.66707,-4.577408 -1.875218,-2.98556 -3.743971,-5.975176 -5.628517,-8.954896 1.424228,-1.116495 3.223773,-1.531399 4.946166,-1.84049 0.471379,-0.608012 -0.06404,-1.498842 -0.203299,-2.12921 -0.482034,-1.046671 -1.729027,-1.927079 -2.890641,-1.660661 -0.660847,0.66862 -0.738204,1.753705 -1.51485,2.371416 -0.470379,0.624391 -1.630546,1.278585 -2.141499,0.326193 -0.981867,-1.347317 -1.655276,-2.901713 -2.598473,-4.282337 -0.486781,-0.817109 -0.973566,-1.634218 -1.460347,-2.451329 -3.076159,1.917157 -5.843179,3.608002 -8.915208,5.531732 -0.556904,-1.385653 -2.046303,-2.949452 -1.28052,-4.514133 -0.06234,-0.723316 -1.215454,-0.198748 -1.670631,-0.05692 -0.709575,0.181783 -1.354625,0.495199 -1.96981,0.890924 z" />
        </g>
        <path
           d="m 27.43907,37.683307 c 0,0 10e-7,0.878447 0,1.755081 0,0.876631 1.229309,1.460751 1.229309,2.395825 0,0.935074 -2.1687,1.810798 -3.692584,1.810798 -1.523881,0 -3.16367,-1.345181 -3.22228,-1.871158 -0.05861,-0.525979 0.409264,-1.05297 0.819539,-1.871157 0.410275,-0.81819 0.52618,-2.337082 0.526182,-2.103312 l -8.73089,-0.05652 c 0,0 -0.02032,7.635517 -0.02328,8.827285 0.292402,-0.002 0.957408,-0.04305 1.490072,-0.352873 0.703332,-0.409092 1.464968,-1.168944 2.402741,-0.993618 0.937771,0.175326 2.223871,2.218682 2.16526,3.329083 -0.05861,1.110399 -0.585704,2.866996 -1.406255,3.217648 -0.82055,0.350651 -2.345042,-0.70494 -3.282815,-0.821824 -0.736745,-0.09183 -1.204872,-0.107214 -1.378316,-0.111434 -0.0046,1.857134 -0.0086,2.095298 -0.01863,6.114925 l 0.05122,4.457348 8.675012,0.06036 c 0,0 -0.06053,-0.819705 -0.06053,-1.462567 0,-0.642863 -1.229309,-1.986728 -1.229309,-2.395825 0,-0.409094 0.937272,-1.87035 3.105868,-1.987235 2.1686,-0.116883 3.692585,1.110605 3.692585,1.987235 0,0.876631 -0.412305,1.170155 -1.05702,2.163671 -0.644718,0.993516 -0.17229,1.694719 -0.17229,1.694721 h 10.72386 v -10.63728 c 0,0 -0.759913,0.05955 -1.639079,0.176437 -0.879162,0.116884 -1.116849,1.109694 -2.230451,1.109694 -1.113606,0 -1.876559,-1.867526 -1.876559,-3.737673 0,-1.870145 1.117353,-3.098039 1.820681,-3.273364 0.70333,-0.175325 1.638875,0.698683 2.342207,1.049334 0.703328,0.350653 1.583198,0.236795 1.583201,0.236796 v -8.594324 z"
           id="path4245"
           sodipodi:nodetypes="cssssscccsssssccccssssscccsssssccc"
           style="fill:#888a85;fill-opacity:1;fill-rule:evenodd;stroke:#000000;stroke-width:0.892755;stroke-linecap:butt;stroke-linejoin:miter;stroke-miterlimit:4;stroke-dasharray:none;stroke-opacity:1"
           inkscape:connector-curvature="0" />
        <path
           d="m 28.289898,39.339986 c 0.413677,0.981545 1.673279,1.888034 1.103584,3.087642 -1.102803,1.807998 -3.523888,2.317093 -5.489982,1.95009 -1.343943,-0.351161 -2.898413,-1.273639 -3.068616,-2.76727 0.04733,-1.117762 0.972764,-1.918766 1.219996,-2.976209 -2.265858,0.11724 -4.560011,-0.03751 -6.835705,-0.0046 0.02051,2.257467 -0.07422,4.645009 0.01863,6.825315 1.06902,-0.6213 2.496896,-1.694745 3.753119,-0.849682 1.980755,1.23998 2.789547,3.949311 1.843964,6.068452 -0.355716,1.237846 -1.6194,2.406274 -2.975488,1.959376 -0.929206,-0.173976 -1.72629,-0.786689 -2.663503,-0.868254 -0.02876,2.915575 -0.0277,5.831635 0.0093,8.747545 2.283764,-0.01728 4.702155,0.123414 6.900894,-0.0046 -0.0059,-1.264532 -1.625941,-2.026866 -1.206026,-3.347654 0.538471,-1.485935 2.220204,-2.275597 3.711209,-2.437612 1.82851,-0.177103 3.988641,0.618822 4.717008,2.391182 0.388651,1.310147 -0.713211,2.461296 -1.261905,3.459088 3.014293,0 6.028583,0 9.042871,0 0,-2.932873 0,-5.865747 0,-8.79862 -1.129967,-0.04693 -1.645195,1.319558 -2.789225,1.225771 -1.321721,0.06593 -2.283207,-1.057263 -2.570805,-2.242676 -0.855171,-2.220263 -0.395589,-5.3224 1.90493,-6.458439 1.312408,-0.464632 2.398049,0.741921 3.49236,1.170054 -0.13659,-2.25586 0.0207,-4.531549 -0.0373,-6.797456 -2.939791,-0.02941 -5.879577,-0.05881 -8.819367,-0.08822 0,0.252274 0,0.504546 0,0.75682 z"
           id="path11113"
           style="opacity:0.702479;fill:none;stroke:#babdb6;stroke-width:0.892755;stroke-linecap:butt;stroke-linejoin:miter;stroke-miterlimit:4;stroke-dasharray:none;stroke-opacity:1"
           inkscape:connector-curvature="0" />
        <path
           d="m 48.661765,32.042461 c -0.06648,0.0011 -0.13246,0.0056 -0.200229,0.0093 -2.168596,0.116885 -3.105868,1.578141 -3.105868,1.987235 0,0.409097 1.229309,1.752962 1.229309,2.395825 10e-7,0.642862 0.06053,1.462567 0.06053,1.462567 l -8.675012,-0.06036 h -0.06053 v 8.594324 c 0,0 -0.817715,-0.003 -1.755491,-0.236796 -0.937772,-0.233769 -1.233258,-0.872896 -2.346863,-0.872898 -1.113604,0 -1.464056,2.044164 -1.522666,3.213005 -0.05861,1.168843 0.762953,3.387521 1.876559,3.329082 0.999033,0.0014 1.322291,-0.368931 2.286328,-1.049334 0.703331,-0.292211 1.578547,0.05572 1.578545,0.05572 V 61.45169 h 8.623791 c 0.01741,-0.152406 0.135284,-1.324035 -0.358548,-1.871158 -0.527497,-0.584421 -1.055098,-1.287847 -0.996486,-2.047595 0.05861,-0.759747 1.288933,-1.869239 3.105868,-1.810797 1.816934,0.05844 3.86953,0.759951 3.86953,1.987235 0,1.227287 -1.172621,1.109795 -1.289843,2.10331 -0.117225,0.993515 -0.05588,1.694722 -0.05588,1.694722 H 61.648672 V 50.814396 c -3e-6,3e-6 -0.701003,-0.527089 -1.345721,-0.176437 -0.64472,0.35065 -1.290756,1.462567 -2.169918,1.462567 -0.879164,-2e-6 -2.697717,-2.164377 -2.463274,-3.742315 0.234443,-1.577941 1.232143,-3.388331 2.169916,-3.213004 0.937776,0.175326 1.289945,0.99281 2.28633,1.109694 0.996387,0.116882 1.639079,0.116076 1.639079,0.116076 L 61.648672,36.221225 v 1.676148 H 50.924811 c 0,-2e-6 -0.472428,-0.701205 0.17229,-1.694721 0.644715,-0.993516 1.05702,-1.28704 1.05702,-2.163671 0,-0.849235 -1.431386,-2.029958 -3.492356,-1.99652 z"
           id="path5248"
           style="fill:#888a85;fill-opacity:1;fill-rule:evenodd;stroke:#000000;stroke-width:0.892755;stroke-linecap:butt;stroke-linejoin:miter;stroke-miterlimit:4;stroke-dasharray:none;stroke-opacity:1"
           inkscape:connector-curvature="0" />
        <path
           d="m 48.389892,32.921449 c -0.787067,0.08232 -1.72195,0.329716 -2.0861,1.109694 0.722992,0.990552 1.293544,2.148463 1.233965,3.384799 0.154986,0.880938 -0.751305,1.664214 -1.606268,1.389587 -2.388234,-0.131044 -4.781076,-0.04918 -7.171186,-0.09881 0,2.860132 0,5.720262 0,8.580394 -1.690605,0.187772 -3.374476,-0.317546 -4.83342,-1.114336 -0.641005,0.200813 -0.579093,1.157002 -0.740379,1.699363 -0.128162,1.072258 0.01014,2.536928 1.061676,3.06907 1.112948,-0.142828 1.872881,-1.444692 3.096555,-1.156124 0.851388,-0.04901 1.866083,0.704826 1.53198,1.634361 0,3.036568 0,6.073137 0,9.109705 2.254539,-0.05378 4.634832,0.124354 6.812422,-0.07429 -0.461163,-0.976111 -1.523671,-1.744693 -1.322439,-2.952993 0.198753,-1.850405 2.331088,-2.753603 4.013882,-2.692981 1.57392,0.04427 3.331381,0.440631 4.367773,1.694721 0.731062,1.067086 0.297029,2.628798 -0.824196,3.226935 -0.216445,0.308701 -0.401025,1.068906 0.246793,0.87754 2.846011,-0.05 5.692922,-0.0058 8.539973,-0.01857 -0.0689,-3.015268 0.134035,-6.236493 -0.09313,-9.128278 -0.772235,0.539413 -1.362481,1.55194 -2.439993,1.490426 -1.675422,-0.13747 -2.791871,-1.753314 -3.278157,-3.217648 -0.500427,-1.778656 0.220619,-3.750139 1.513354,-5.000588 0.807119,-0.773422 2.047596,-0.550376 2.8415,0.115222 0.459396,0.265142 1.136011,0.752636 1.614746,0.553381 -0.224208,-1.882541 9.94e-4,-3.804963 -0.120024,-5.701669 0.328485,-1.148886 -0.644061,-0.98387 -1.500429,-0.937923 -2.947549,0 -5.895097,0 -8.842645,0 -1.078725,-1.125243 -0.445356,-2.904678 0.456334,-3.932681 0.749861,-0.525117 0.09672,-1.507318 -0.619311,-1.615788 -0.582098,-0.26009 -1.219642,-0.332572 -1.853277,-0.292514 z"
           id="path13067"
           style="opacity:0.710744;fill:none;stroke:#babdb6;stroke-width:0.892755;stroke-linecap:butt;stroke-linejoin:miter;stroke-miterlimit:4;stroke-dasharray:none;stroke-opacity:1"
           inkscape:connector-curvature="0" />
        <path
           d="m 37.965078,14.061297 -0.06053,8.705758 c 0,0 -1.113505,0.06006 -1.699613,-0.232153 -0.586108,-0.292213 -1.521352,-0.993618 -2.048849,-0.993618 -0.527499,0 -2.051581,1.575818 -1.992971,3.329082 0.05861,1.753259 1.054084,3.510161 1.816025,3.510161 0.761939,-2e-6 1.290754,-0.704131 2.169917,-0.937899 0.879162,-0.233766 1.755491,-0.171795 1.755491,-0.171795 l -0.05588,10.516557 8.670356,-0.05572 c 10e-7,-5e-6 0.293864,-1.112217 -0.116413,-1.755081 -0.410274,-0.642863 -1.34572,-1.346291 -1.34572,-2.047595 10e-7,-0.701307 1.112595,-1.924956 3.515638,-1.866514 2.403044,0.05844 3.63205,1.110603 3.63205,1.987235 -1e-6,0.876629 -1.231233,1.341645 -1.289844,2.04295 -0.05861,0.701305 -0.05588,1.639005 -0.05588,1.639005 H 61.699128 V 27.150114 c 2e-6,-10e-7 -0.875214,-0.347928 -1.578545,-0.05572 -0.964037,0.680403 -1.28942,1.052683 -2.288453,1.051253 -1.113604,0.05844 -1.933045,-2.162158 -1.874434,-3.331001 0.05861,-1.168841 0.409062,-3.213005 1.522666,-3.213005 1.113605,2e-6 1.409091,0.639129 2.346863,0.872898 0.937776,0.233772 1.755491,0.236796 1.755491,0.236796 v -8.594324 l -10.430502,-0.05572 c 10e-7,-2e-6 -0.352476,0.699288 0.116412,1.634361 0.468887,0.935071 0.880073,1.226678 0.880073,2.103311 -10e-7,0.876631 -1.994187,2.049513 -3.166403,2.107954 -1.172216,0.05844 -3.925407,-0.585936 -3.925407,-1.462567 1e-6,-0.87663 1.464056,-1.868534 1.522667,-2.920492 0.05861,-1.051956 0.06053,-1.462567 0.06053,-1.462567 z"
           id="path5243"
           sodipodi:nodetypes="ccssssscccssssscccccssscccssssscc"
           style="fill:#888a85;fill-opacity:1;fill-rule:evenodd;stroke:#000000;stroke-width:0.892755;stroke-linecap:butt;stroke-linejoin:miter;stroke-miterlimit:4;stroke-dasharray:none;stroke-opacity:1"
           inkscape:connector-curvature="0" />
        <path
           d="m 39.276899,14.922227 c -0.797631,0.0535 -0.380983,1.086723 -0.447421,1.573844 -0.08569,2.264094 0.131592,4.591044 -0.167233,6.816186 -0.654002,0.749755 -1.783458,0.337967 -2.607627,0.190366 -0.67242,-0.189425 -1.226646,-0.980864 -1.92778,-0.896113 -1.463553,1.169495 -1.375642,3.720406 -0.0326,4.903082 0.657899,-0.393279 1.344225,-0.824374 2.132665,-0.947186 0.83855,-0.188875 1.70912,-0.191522 2.561061,-0.08357 -0.01497,3.48541 -0.03673,6.9708 -0.05588,10.456195 2.312064,-0.05392 4.750403,0.06796 6.989369,-0.10679 -0.365232,-1.105858 -1.842559,-1.819618 -1.527324,-3.143359 0.430537,-1.830382 2.571016,-2.484639 4.251361,-2.470114 1.666144,0.01424 3.685499,0.491497 4.474872,2.103311 0.43213,0.990265 -0.08198,2.090391 -0.926639,2.669766 -0.194436,0.205662 -0.586005,1.15263 0.0047,0.923971 2.92132,-0.0818 5.866395,0.01232 8.79608,-0.02322 -0.03131,-2.971013 0.06244,-6.081238 -0.04656,-8.96577 -0.944929,0.262355 -1.616757,1.292234 -2.705412,1.17934 -1.725317,0.0655 -2.640596,-1.72412 -2.877701,-3.18979 -0.304328,-1.701188 0.01305,-3.752548 1.401599,-4.898439 1.232193,-0.710938 2.511883,0.231422 3.626433,0.671865 0.603816,0.355036 0.548333,-0.09359 0.485234,-0.606862 0,-2.007355 0,-4.014709 0,-6.022064 -2.902487,0.01222 -5.805867,-0.109451 -8.707608,-0.0046 0.406444,1.118186 1.529459,2.310326 0.870761,3.547307 -1.325024,2.133742 -4.29254,2.745147 -6.556316,1.82937 -1.107898,-0.235364 -2.466509,-1.210937 -2.020909,-2.497972 0.254228,-1.104668 1.567757,-1.764446 1.466788,-2.971566 -2.09865,0.123253 -4.264979,0.06401 -6.328148,-0.0325 -0.04107,-0.0074 -0.08424,-0.01432 -0.125725,-0.0046 z"
           id="path14052"
           style="opacity:0.702479;fill:none;stroke:#babdb6;stroke-width:0.892755;stroke-linecap:butt;stroke-linejoin:miter;stroke-miterlimit:4;stroke-dasharray:none;stroke-opacity:1"
           inkscape:connector-curvature="0" />
      </g>
    </g>
  </g>
</svg>
