<?xml version="1.0" encoding="UTF-8" standalone="no"?>
<!-- Created by sixsixfive and published under CC0 v1.0(http://creativecommons.org/publicdomain/zero/1.0/deed.en) on openclipart.org -->

<svg
   version="1.0"
   viewBox="0 0 44.8 44.8"
   id="svg379"
   sodipodi:docname="updateA2.svg"
   width="64"
   height="64"
   inkscape:version="1.1.2 (0a00cf5339, 2022-02-04)"
   xmlns:inkscape="http://www.inkscape.org/namespaces/inkscape"
   xmlns:sodipodi="http://sodipodi.sourceforge.net/DTD/sodipodi-0.dtd"
   xmlns:xlink="http://www.w3.org/1999/xlink"
   xmlns="http://www.w3.org/2000/svg"
   xmlns:svg="http://www.w3.org/2000/svg"
   xmlns:rdf="http://www.w3.org/1999/02/22-rdf-syntax-ns#"
   xmlns:cc="http://creativecommons.org/ns#"
   xmlns:dc="http://purl.org/dc/elements/1.1/">
  <sodipodi:namedview
     id="namedview381"
     pagecolor="#ffffff"
     bordercolor="#666666"
     borderopacity="1.0"
     inkscape:pageshadow="2"
     inkscape:pageopacity="0.0"
     inkscape:pagecheckerboard="0"
     showgrid="false"
     scale-x="0.7"
     inkscape:zoom="6.5520833"
     inkscape:cx="22.664547"
     inkscape:cy="26.785374"
     inkscape:window-width="1440"
     inkscape:window-height="843"
     inkscape:window-x="0"
     inkscape:window-y="0"
     inkscape:window-maximized="1"
     inkscape:current-layer="svg379" />
  <defs
     id="defs4">
    <linearGradient
       id="linearGradient4454">
      <stop
         id="stop4456"
         stop-color="#ffffff"
         stop-opacity=".8"
         offset="0" />
      <stop
         id="stop4458"
         stop-color="#ffffff"
         stop-opacity="0"
         offset="1" />
    </linearGradient>
    <linearGradient
       id="linearGradient4511"
       xlink:href="#linearGradient4454"
       gradientUnits="userSpaceOnUse"
       x2="0"
       y1="7.0625"
       y2="37" />
    <linearGradient
       id="linearGradient4513"
       xlink:href="#linearGradient4454"
       gradientUnits="userSpaceOnUse"
       x2="0"
       y1="4.2188001"
       y2="43.780998" />
    <linearGradient
       id="linearGradient4515"
       y2="33.905998"
       gradientUnits="userSpaceOnUse"
       x2="15.298"
       gradientTransform="translate(0.70639,-1.5)"
       y1="-58.012001"
       x1="4.0938001">
      <stop
         id="stop3458"
         stop-color="#eeeeec"
         offset="0" />
      <stop
         id="stop3460"
         stop-color="#eeeeec"
         stop-opacity="0"
         offset="1" />
    </linearGradient>
    <radialGradient
       id="radialGradient4517"
       gradientUnits="userSpaceOnUse"
       cy="45.941002"
       cx="24.377001"
       gradientTransform="matrix(1,0,0,0.14554,0,39.255)"
       r="23.077">
      <stop
         id="stop3478"
         stop-color="#2e3436"
         offset="0" />
      <stop
         id="stop3480"
         stop-color="#2e3436"
         stop-opacity="0"
         offset="1" />
    </radialGradient>
  </defs>
  <g
     id="layer1"
     transform="translate(-1.42297)">
    <path
       id="path3474"
       opacity="0.8"
       fill="url(#radialGradient4517)"
       d="m 47.454,45.941 a 23.077,3.3586 0 1 1 -46.154,0 23.077,3.3586 0 1 1 46.154,0 z"
       transform="translate(-0.37703,-2.8001)"
       style="fill:url(#radialGradient4517)" />
    <g
       id="g4468"
       transform="translate(-0.70639)">
      <rect
         id="rect2653"
         rx="6"
         height="42"
         width="42"
         y="1.5"
         x="3.7063999"
         fill="#2e3436" />
      <path
         id="path2659"
         fill="#555753"
         d="M 9,4.0938 C 6.2609,4.0938 4.0938,6.2609 4.0938,9 v 30 c 0,2.7391 2.1671,4.9062 4.9062,4.9062 h 30 c 2.7391,0 4.9062,-2.1671 4.9062,-4.9062 V 9 c 0,-2.7391 -2.167,-4.9062 -4.906,-4.9062 h -30 z"
         transform="translate(0.70639,-1.5)" />
      <g
         id="g4462">
        <path
           id="path3668"
           fill="#2e3436"
           d="M 39.25,4.3438 C 39.255,4.3429 39.089,4.3763 39.094,4.375 39.099,4.3737 38.932,4.4392 38.938,4.4375 38.943,4.4358 38.776,4.5021 38.781,4.5 38.786,4.4979 38.62,4.565 38.625,4.5625 c 0.0048,-0.00252 -0.16078,0.096647 -0.15625,0.09375 0.0045,-0.0029 -0.12928,0.097008 -0.125,0.09375 0.0043,-0.00326 -0.129,0.097348 -0.125,0.09375 0.003,-0.0027 -0.05932,0.060218 -0.09375,0.09375 -0.01148,0.011177 -0.03217,0.032228 -0.03125,0.03125 l -3.594,3.5624 c -2.783,-2.0066 -6.107,-3.3437 -9.812,-3.3437 -8.4318,0 -15.449,6.1678 -16.844,14.219 6.115e-4,-0.0035 -4.218e-4,0.09727 0,0.09375 4.218e-4,-0.0035 -2.309e-4,0.12854 0,0.125 2.309e-4,-0.0035 -0.031289,0.0973 -0.03125,0.09375 3.93e-5,-0.0035 1.525e-4,0.12854 0,0.125 -1.525e-4,-0.0035 0.031594,0.12853 0.03125,0.125 -3.438e-4,-0.0035 5.34e-4,0.09726 0,0.09375 -5.34e-4,-0.0035 0.031973,0.12847 0.03125,0.125 -7.228e-4,-0.0035 0.032159,0.09718 0.03125,0.09375 -7e-4,-0.004 0.0326,0.096 0.0315,0.093 -0.0011,-0.003 0.0325,0.128 0.0313,0.125 -0.0013,-0.003 0.0327,0.097 0.0312,0.094 -0.00145,-0.0032 0.064124,0.0969 0.0625,0.09375 -0.00162,-0.0032 0.033042,0.09681 0.03125,0.09375 -0.00179,-0.0031 0.064455,0.12796 0.0625,0.125 -0.00195,-0.003 0.064612,0.06535 0.0625,0.0625 -0.0022,-0.003 0.096,0.096 0.0937,0.093 -0.0023,-0.002 0.0649,0.097 0.0625,0.094 -0.0024,-0.002 0.065,0.096 0.0625,0.094 -0.0025,-0.002 0.0964,0.065 0.0937,0.062 -0.0026,-0.002 0.0966,0.065 0.0938,0.063 -0.0028,-0.002 0.0967,0.065 0.0938,0.063 -0.003,-0.002 0.0967,0.064 0.0937,0.062 -0.003,-0.002 0.0969,0.064 0.0937,0.062 -0.0031,-0.001 0.097,0.065 0.0938,0.063 -0.0032,-0.0015 0.097027,0.03261 0.09375,0.03125 -0.00328,-0.0014 0.12835,0.03243 0.125,0.03125 -0.00335,-0.0012 0.097154,0.06349 0.09375,0.0625 -0.0034,-9.94e-4 0.097203,8.08e-4 0.09375,0 -0.00345,-8.08e-4 0.12849,0.03187 0.125,0.03125 -0.00349,-6.21e-4 0.09727,0.03168 0.09375,0.03125 -0.00352,-4.31e-4 0.12854,2.4e-4 0.125,0 -0.00354,-2.4e-4 0.12855,4.8e-5 0.125,0 h 5.9688 c -0.0054,-3.5e-5 0.16161,-4.05e-4 0.15625,0 -0.0054,4.05e-4 0.19281,-0.03209 0.1875,-0.03125 -0.0053,8.42e-4 0.16147,-0.03252 0.15625,-0.03125 -0.0052,0.0013 0.16135,-0.03295 0.15625,-0.03125 -0.0051,0.0017 0.16119,-0.06461 0.15625,-0.0625 -0.0049,0.0021 0.161,-0.06501 0.15625,-0.0625 -0.0048,0.0025 0.16078,-0.09664 0.15625,-0.09375 -0.0045,0.0029 0.12928,-0.097 0.125,-0.09375 -0.0043,0.0032 0.129,-0.12859 0.125,-0.125 -0.004,0.0036 0.12869,-0.09765 0.125,-0.09375 -0.0037,0.0039 0.12836,-0.16044 0.125,-0.15625 -0.0034,0.0042 0.09676,-0.12945 0.09375,-0.125 -0.003,0.0045 0.09638,-0.16094 0.09375,-0.15625 -0.0026,0.0047 0.06474,-0.12988 0.0625,-0.125 -0.0022,0.0049 0.06433,-0.1613 0.0625,-0.15625 -0.0018,0.0051 0.06391,-0.16144 0.0625,-0.15625 0.86739,-2.9774 3.5705,-5.1562 6.8438,-5.1562 0.91394,0 1.7506,0.26034 2.5625,0.625 l -2.5,2.5 c 0.0034,-0.0034 -0.09691,0.12865 -0.09375,0.125 0.0032,-0.0037 -0.09663,0.12887 -0.09375,0.125 0.0029,-0.0039 -0.09634,0.12907 -0.09375,0.125 0.0026,-0.0041 -0.06478,0.12925 -0.0625,0.125 0.0023,-0.0043 -0.06446,0.12941 -0.0625,0.125 0.002,-0.0044 -0.06413,0.16079 -0.0625,0.15625 0.0016,-0.0045 -0.0638,0.12965 -0.0625,0.125 0.0013,-0.0047 -0.0322,0.16098 -0.03125,0.15625 9.51e-4,-0.0047 -6e-4,0.16104 0,0.15625 6e-4,-0.0048 -0.0315,0.16107 -0.03125,0.15625 2.46e-4,-0.0048 1.09e-4,0.16108 0,0.15625 -1.09e-4,-0.0048 4.64e-4,0.1298 0,0.125 -4.64e-4,-0.0048 0.03207,0.16101 0.03125,0.15625 -8.16e-4,-0.0048 0.03241,0.16094 0.03125,0.15625 -0.0012,-0.0047 0.03276,0.16084 0.03125,0.15625 -0.0015,-0.0046 0.06434,0.12946 0.0625,0.125 -0.0018,-0.0045 0.06466,0.16057 0.0625,0.15625 -0.0022,-0.0043 0.06497,0.12915 0.0625,0.125 -0.0025,-0.0041 0.09652,0.12895 0.09375,0.125 -0.0028,-0.004 0.0968,0.12874 0.09375,0.125 -0.0031,-0.0037 0.09707,0.1285 0.09375,0.125 -0.0033,-0.0035 0.12857,0.097 0.125,0.09375 -0.0036,-0.0033 0.09755,0.09673 0.09375,0.09375 -0.0038,-0.003 0.12901,0.09644 0.125,0.09375 -0.004,-0.0027 0.12919,0.06489 0.125,0.0625 -0.0042,-0.0024 0.16061,0.09582 0.15625,0.09375 -0.0044,-0.0021 0.1295,0.06425 0.125,0.0625 -0.0045,-0.0017 0.16087,0.03266 0.15625,0.03125 -0.0046,-0.0014 0.12971,0.06357 0.125,0.0625 -0.0047,-0.0011 0.16102,7.2e-4 0.15625,0 -0.0048,-7.2e-4 0.16106,0.03162 0.15625,0.03125 -0.0048,-3.67e-4 0.16108,1.2e-5 0.15625,0 h 7.3125 5.9688 0.0625 c -0.0065,-3.2e-5 0.19395,-6.07e-4 0.1875,0 -0.0065,6.07e-4 0.22511,-0.03249 0.21875,-0.03125 -0.0064,0.0012 0.1937,-0.06436 0.1875,-0.0625 -0.0062,0.0019 0.19349,-0.06497 0.1875,-0.0625 -0.006,0.0025 0.19322,-0.09679 0.1875,-0.09375 -0.0057,0.003 0.19289,-0.09734 0.1875,-0.09375 -0.0054,0.0036 0.16126,-0.12911 0.15625,-0.125 -0.005,0.0041 0.16083,-0.12958 0.15625,-0.125 -0.0046,0.0046 0.12911,-0.16126 0.125,-0.15625 -0.0041,0.005 0.12859,-0.16164 0.125,-0.15625 -0.0036,0.0054 0.09679,-0.19322 0.09375,-0.1875 -0.003,0.0057 0.09622,-0.19349 0.09375,-0.1875 -0.0025,0.006 0.06436,-0.1937 0.0625,-0.1875 -0.0019,0.0062 0.06374,-0.19386 0.0625,-0.1875 -0.0012,0.0064 0.03186,-0.2252 0.03125,-0.21875 -6.07e-4,0.0065 -3.2e-5,-0.19398 0,-0.1875 V 6.4375 6.40625 c -4.27e-4,-0.031593 -1.04e-4,-0.096399 0,-0.09375 1.39e-4,0.00353 -3.29e-4,-0.12852 0,-0.125 3.29e-4,0.00352 -0.03177,-0.097247 -0.03125,-0.09375 5.18e-4,0.0035 -7.06e-4,-0.12846 0,-0.125 0,0.0027 -0.032,-0.0979 -0.032,-0.0945 10e-4,0.0034 -0.032,-0.0971 -0.031,-0.0938 10e-4,0.0034 -0.032,-0.1283 -0.031,-0.125 10e-4,0.0034 -0.033,-0.0969 -0.031,-0.0937 0.001,0.0032 -0.064,-0.0969 -0.063,-0.0937 0.002,0.0031 -0.064,-0.0969 -0.062,-0.0938 0.002,0.0031 -0.065,-0.128 -0.063,-0.125 0.002,0.003 -0.064,-0.0654 -0.062,-0.0625 0.002,0.0029 -0.065,-0.0965 -0.063,-0.0937 0.002,0.0027 -0.065,-0.0964 -0.062,-0.0938 0.002,0.0026 -0.097,-0.0962 -0.094,-0.0938 0.002,0.0025 -0.065,-0.0648 -0.062,-0.0624 0.002,0.0023 -0.097,-0.0647 -0.094,-0.0626 0.003,0.0022 -0.097,-0.0645 -0.094,-0.0624 0.003,0.002 -0.097,-0.0644 -0.094,-0.0626 0.003,0.0019 -0.097,-0.0642 -0.094,-0.0624 0.004,0.0017 -0.096,-0.0641 -0.093,-0.0626 0.003,0.0016 -0.097,-0.0326 -0.094,-0.0312 0.003,0.0014 -0.097,-0.0637 -0.094,-0.0625 0.004,0.0012 -0.128,-0.0323 -0.125,-0.0313 0.004,0.0011 -0.097,-0.032 -0.094,-0.0312 0.0034,8.33e-4 -0.12848,-6.467e-4 -0.125,0 0.0035,6.467e-4 -0.09725,-0.031709 -0.09375,-0.03125 0.0035,4.586e-4 -0.12852,-2.691e-4 -0.125,0 0.0035,2.691e-4 -0.09728,-7.88e-5 -0.09375,0 0.0035,7.88e-5 -0.12853,1.117e-4 -0.125,0 0.0035,-1.117e-4 -0.09727,3.019e-4 -0.09375,0 0.0035,-3.019e-4 -0.1285,4.912e-4 -0.125,0 a 1.1298,1.1298 0 0 0 -0.03125,0 z m -29.781,18.5 a 1.1298,1.1298 0 0 0 -0.0628,0.031 c 0.00562,-0.0011 -0.193,0.03286 -0.1875,0.03125 0.0055,-0.0016 -0.16159,0.06458 -0.15625,0.0625 0.00534,-0.0021 -0.16139,0.06504 -0.15625,0.0625 0.00514,-0.0025 -0.16115,0.09673 -0.15625,0.09375 0.0049,-0.003 -0.16087,0.09714 -0.15625,0.09375 0.00462,-0.0034 -0.16055,0.12878 -0.15625,0.125 0.0043,-0.0038 -0.12896,0.12914 -0.125,0.125 0.00396,-0.0041 -0.12858,0.12947 -0.125,0.125 0.0037,-0.005 -0.0968,0.161 -0.0936,0.156 0.0031,-0.005 -0.0965,0.161 -0.0938,0.156 0.00275,-0.005 -0.096048,0.1615 -0.09375,0.15625 0.0023,-0.0052 -0.064331,0.16168 -0.0625,0.15625 0.00183,-0.0054 -0.0326,0.19307 -0.03125,0.1875 0.00135,-0.0056 -0.032109,0.16192 -0.03125,0.15625 8.592e-4,-0.0057 -0.031612,0.19322 -0.03125,0.1875 3.013e-4,-0.0048 9.35e-4,0.11535 0,0.15625 -1.87e-4,0.0082 2.31e-5,0.03221 0,0.03125 v 13.312 c -1.22e-5,-0.0048 3.672e-4,0.16106 0,0.15625 -3.672e-4,-0.0048 0.03197,0.16102 0.03125,0.15625 -7.201e-4,-0.0048 0.00107,0.16096 0,0.15625 -0.00107,-0.0047 0.063912,0.12962 0.0625,0.125 -0.0015,-0.004 0.0329,0.161 0.0312,0.157 -0.00175,-0.0045 0.064574,0.12936 0.0625,0.125 -0.00207,-0.0044 0.096139,0.16044 0.09375,0.15625 -0.00239,-0.0042 0.065191,0.12901 0.0625,0.125 -0.00269,-0.004 0.096728,0.1288 0.09375,0.125 -0.00298,-0.0038 0.097,0.09732 0.09375,0.09375 -0.0032,-0.004 0.0973,0.128 0.0938,0.125 -0.0035,-0.003 0.1287,0.097 0.125,0.094 -0.00374,-0.0031 0.12895,0.09652 0.125,0.09375 -0.00395,-0.0028 0.12915,0.09622 0.125,0.09375 -0.00415,-0.0025 0.12932,0.06466 0.125,0.0625 -0.00432,-0.0022 0.16071,0.06434 0.15625,0.0625 -0.00446,-0.0018 0.12959,0.06401 0.125,0.0625 -0.00459,-0.0015 0.16093,0.03241 0.15625,0.03125 -0.00468,-0.0012 0.16101,0.03207 0.15625,0.03125 -0.00476,-8.16e-4 0.16105,0.03171 0.15625,0.03125 -0.0048,-4.64e-4 0.12983,1.09e-4 0.125,0 -0.00483,-1.09e-4 0.16107,-2.46e-4 0.15625,0 -0.00482,2.46e-4 0.16104,-0.03185 0.15625,-0.03125 -0.0048,6e-4 0.16098,-9.51e-4 0.15625,0 -0.0047,9.51e-4 0.1609,-0.03255 0.15625,-0.03125 -0.0046,0.0013 0.12954,-0.06413 0.125,-0.0625 -0.0045,0.0016 0.16066,-0.06446 0.15625,-0.0625 -0.0044,0.002 0.12925,-0.06478 0.125,-0.0625 -0.0043,0.0023 0.12907,-0.06509 0.125,-0.0625 -0.0041,0.0026 0.12887,-0.09663 0.125,-0.09375 -0.0039,0.0029 0.12865,-0.09691 0.125,-0.09375 -0.0037,0.0032 0.12841,-0.09717 0.125,-0.09375 a 1.1298,1.1298 0 0 0 0,-0.03125 l 3.5625,-3.5938 c 2.7922,2.011 6.1366,3.3438 9.8438,3.3438 8.4263,0 15.449,-6.1354 16.844,-14.188 -6.12e-4,0.0035 4.22e-4,-0.09727 0,-0.09375 -4.22e-4,0.0035 2.31e-4,-0.12854 0,-0.125 -2.31e-4,0.0035 0.03129,-0.0973 0.03125,-0.09375 -3.9e-5,0.0035 -1.52e-4,-0.12854 0,-0.125 1.52e-4,0.0035 -0.03159,-0.12853 -0.03125,-0.125 3.44e-4,0.0035 -5.34e-4,-0.09726 0,-0.09375 5.34e-4,0.0035 -0.03197,-0.12847 -0.03125,-0.125 7.23e-4,0.0035 -0.03216,-0.09718 -0.03125,-0.09375 9.09e-4,0.0034 -0.03234,-0.09712 -0.03125,-0.09375 0.0011,0.0034 -0.03252,-0.12831 -0.03125,-0.125 0.0013,0.0033 -0.0327,-0.09699 -0.03125,-0.09375 0.0015,0.0032 -0.06412,-0.0969 -0.0625,-0.09375 0.0016,0.0032 -0.03304,-0.09681 -0.03125,-0.09375 0.0018,0.0031 -0.06446,-0.12796 -0.0625,-0.125 0.002,0.003 -0.06461,-0.06535 -0.0625,-0.0625 0.0021,0.0028 -0.09601,-0.09648 -0.09375,-0.09375 0.001,0.004 -0.066,-0.095 -0.064,-0.092 0.0024,0.0026 -0.06504,-0.09622 -0.0625,-0.09375 0.0025,0.0025 -0.09642,-0.06483 -0.09375,-0.0625 0.0027,0.0023 -0.09655,-0.06468 -0.09375,-0.0625 0.0028,0.0022 -0.09666,-0.06453 -0.09375,-0.0625 0.0029,0.002 -0.09676,-0.06437 -0.09375,-0.0625 0.003,0.0019 -0.09686,-0.0642 -0.09375,-0.0625 0.0031,0.0017 -0.09695,-0.06403 -0.09375,-0.0625 0.0032,0.0015 -0.09703,-0.03261 -0.09375,-0.03125 0.0033,0.0014 -0.12835,-0.03243 -0.125,-0.03125 0.0033,0.0012 -0.09715,-0.06349 -0.09375,-0.0625 0.0034,9.94e-4 -0.0972,-8.08e-4 -0.09375,0 0.0035,8.08e-4 -0.12849,-0.03187 -0.125,-0.03125 0.0035,6.21e-4 -0.09727,-0.03168 -0.09375,-0.03125 0.0035,4.31e-4 -0.12854,-2.4e-4 -0.125,0 0.0035,2.4e-4 -0.12855,-4.8e-5 -0.125,0 h -5.9688 c 0.0054,3.5e-5 -0.16161,4.05e-4 -0.15625,0 0.0054,-4.05e-4 -0.19281,0.03209 -0.1875,0.03125 0.0053,-8.42e-4 -0.16147,0.03252 -0.15625,0.03125 0.0052,-0.0013 -0.16135,0.03295 -0.15625,0.03125 0.0051,-0.0017 -0.16119,0.06461 -0.15625,0.0625 0.0049,-0.0021 -0.161,0.06501 -0.15625,0.0625 0.0048,-0.0025 -0.16078,0.09664 -0.15625,0.09375 0.0045,-0.0029 -0.12928,0.097 -0.125,0.09375 0.0043,-0.0032 -0.129,0.12859 -0.125,0.125 0.004,-0.0036 -0.12869,0.09765 -0.125,0.09375 0.0037,-0.0039 -0.12836,0.16044 -0.125,0.15625 0.0034,-0.0042 -0.09676,0.12945 -0.09375,0.125 0.003,-0.0045 -0.09638,0.16094 -0.09375,0.15625 0.0026,-0.0047 -0.06474,0.12988 -0.0625,0.125 0.0022,-0.0049 -0.06433,0.1613 -0.0625,0.15625 0.0018,-0.0051 -0.06391,0.16144 -0.0625,0.15625 -0.867,2.981 -3.569,5.156 -6.843,5.156 -0.93459,10e-7 -1.7733,-0.28155 -2.5938,-0.65625 l 2.5,-2.4688 V 26.3445 c 0.02276,-0.02457 0.0964,-0.09682 0.09375,-0.09375 -0.0032,0.0037 0.09663,-0.12887 0.09375,-0.125 -0.0029,0.0039 0.09634,-0.12907 0.09375,-0.125 -0.0026,0.0041 0.06478,-0.12925 0.0625,-0.125 -0.0023,0.0043 0.06446,-0.12941 0.0625,-0.125 -0.002,0.0044 0.06413,-0.16079 0.0625,-0.15625 -0.0016,0.0045 0.0638,-0.12965 0.0625,-0.125 -0.0013,0.0047 0.0322,-0.16098 0.03125,-0.15625 -9.51e-4,0.0047 6e-4,-0.16104 0,-0.15625 -6e-4,0.0048 0.0315,-0.16107 0.03125,-0.15625 -2.46e-4,0.0048 -1.09e-4,-0.16108 0,-0.15625 1.09e-4,0.0048 -4.64e-4,-0.1298 0,-0.125 4.64e-4,0.0048 -0.03207,-0.16101 -0.03125,-0.15625 8.16e-4,0.0048 -0.03241,-0.16094 -0.03125,-0.15625 0.0012,0.0047 -0.03276,-0.16084 -0.03125,-0.15625 0.0015,0.0046 -0.06434,-0.12946 -0.0625,-0.125 0.0018,0.0045 -0.06466,-0.16057 -0.0625,-0.15625 0.0022,0.0043 -0.06497,-0.12915 -0.0625,-0.125 0.0025,0.0041 -0.09652,-0.12895 -0.09375,-0.125 0.0028,0.004 -0.0968,-0.12874 -0.09375,-0.125 0.0031,0.0037 -0.09707,-0.1285 -0.09375,-0.125 0.0033,0.0035 -0.12857,-0.097 -0.125,-0.09375 0.0036,0.0033 -0.09755,-0.09673 -0.09375,-0.09375 0.0038,0.003 -0.12901,-0.09644 -0.125,-0.09375 0.004,0.0027 -0.12919,-0.06489 -0.125,-0.0625 0.0042,0.0024 -0.16061,-0.09582 -0.15625,-0.09375 0.0044,0.0021 -0.1295,-0.06425 -0.125,-0.0625 0.0045,0.0017 -0.16087,-0.03266 -0.15625,-0.03125 0.0046,0.0014 -0.12971,-0.06357 -0.125,-0.0625 0.0047,0.0011 -0.16102,-7.2e-4 -0.15625,0 0.0048,7.2e-4 -0.16106,-0.03162 -0.15625,-0.03125 0.0048,3.67e-4 -0.16108,-1.2e-5 -0.15625,0 h -13.25 c 0.00188,9.5e-5 -0.037906,-4.1e-5 -0.0625,0 -0.012297,2e-5 -0.016306,-7e-6 -0.03125,0 0.00376,1.89e-4 -0.065222,2.7e-5 -0.125,0 -0.044833,-2e-5 -0.096572,1.42e-4 -0.09375,0 a 1.1298,1.1298 0 0 0 -0.09375,0 z"
           transform="matrix(0.9836,0,0,0.9836,0.1271,0.071236)" />
        <path
           id="path3664"
           fill="#a64a00"
           d="M 39.438,5.4688 A 0.93296,0.93296 0 0 0 38.906,5.75 l -4.218,4.1875 c -2.7433,-2.2302 -6.1944,-3.625 -10,-3.625 -7.8813,0 -14.416,5.7607 -15.719,13.281 a 0.93296,0.93296 0 0 0 0.906,1.094 h 5.9688 a 0.93296,0.93296 0 0 0 0.906,-0.688 c 1.0039,-3.4459 4.1611,-5.9688 7.9375,-5.9688 1.6753,0 3.1672,0.60854 4.4688,1.4688 l -3.5938,3.5938 a 0.93296,0.93296 0 0 0 0.65625,1.5938 h 7.3125 5.9688 0.0625 a 0.93296,0.93296 0 0 0 0.938,-0.938 V 6.4051 a 0.93296,0.93296 0 0 0 -1.0625,-0.9375 z m -29.719,18.5 a 0.93296,0.93296 0 0 0 -0.844,0.937 v 13.344 a 0.93296,0.93296 0 0 0 1.5938,0.65625 l 4.1875,-4.2188 c 2.7496,2.2354 6.2224,3.625 10.031,3.625 7.8786,0 14.416,-5.729 15.719,-13.25 a 0.93296,0.93296 0 0 0 -0.906,-1.093 h -5.9688 a 0.93296,0.93296 0 0 0 -0.90625,0.6875 c -1.004,3.45 -4.1605,5.9688 -7.9375,5.9688 -1.6828,1e-6 -3.1696,-0.60646 -4.4688,-1.4688 l 3.5625,-3.5938 a 0.93296,0.93296 0 0 0 -0.657,-1.593 h -13.312 a 0.93296,0.93296 0 0 0 -0.09375,0 z"
           transform="matrix(0.9836,0,0,0.9836,0.1271,0.071236)" />
        <path
           id="path8945"
           fill="#f57900"
           d="M 39.036,6.3695 34.348,11.059 C 31.722,8.6704 28.235,7.2147 24.409,7.2147 c -7.3058,0 -13.371,5.314 -14.578,12.28 h 5.8809 c 1.0989,-3.772 4.5713,-6.5295 8.6972,-6.5295 2.2434,0 4.2839,0.82069 5.8644,2.171 l -4.3569,4.3585 h 7.1897 5.8809 0.04971 V 6.3697 Z M 9.764,24.5655 v 13.125 l 4.6882,-4.6899 c 2.6271,2.3941 6.1255,3.8448 9.9562,3.8448 7.3058,0 13.371,-5.314 14.578,-12.28 h -5.8809 c -1.0989,3.776 -4.5713,6.546 -8.6972,6.546 -2.2491,1e-6 -4.2988,-0.82704 -5.881,-2.1875 l 4.3569,-4.3585 h -13.12 z" />
        <path
           id="path3680"
           opacity="0.8"
           stroke="url(#linearGradient4511)"
           fill="none"
           d="M 38.531,7.5625 34.688,11.406 A 0.4911,0.4911 0 0 1 34,11.438 C 31.461,9.1272 28.108,7.7188 24.406,7.7188 c -6.855,0 -12.536,4.8442 -13.937,11.281 h 4.9062 c 1.275,-3.7796 4.8264,-6.5312 9.0312,-6.5312 2.361,0 4.5209,0.85737 6.1875,2.2812 a 0.4911,0.4911 0 0 1 0.031,0.719 l -3.531,3.531 h 6 5.4375 V 7.5618 Z m -28.281,17.5 v 11.438 l 3.8438,-3.8438 a 0.4911,0.4911 0 0 1 0.6875,-0.03125 c 2.539,2.3139 5.9181,3.7188 9.625,3.7188 6.8553,0 12.566,-4.8455 13.969,-11.281 h -4.9375 c -1.2746,3.7843 -4.8243,6.5625 -9.0312,6.5625 -2.3695,1e-6 -4.5215,-0.87984 -6.1875,-2.3125 a 0.4911,0.4911 0 0 1 -0.031,-0.719 l 3.5,-3.5312 h -11.438 z"
           style="stroke:url(#linearGradient4511)" />
      </g>
      <path
         id="path3431"
         opacity="0.8"
         d="M 9,4.7188 C 6.5944,4.7188 4.7188,6.5944 4.7188,9 v 30 c 0,2.4056 1.8756,4.2812 4.2812,4.2812 h 30 c 2.4056,0 4.2812,-1.8756 4.2812,-4.2812 V 9 c 0,-2.4056 -1.875,-4.2812 -4.281,-4.2812 h -30 z"
         transform="translate(0.70639,-1.5)"
         stroke-dashoffset="30"
         stroke="url(#linearGradient4513)"
         stroke-linecap="round"
         fill="none"
         style="stroke:url(#linearGradient4513)" />
      <path
         id="path3451"
         opacity="0.6"
         fill="url(#linearGradient4515)"
         d="M 9.7064,2.5938 C 6.9673,2.5938 4.8002,4.7609 4.8002,7.5 v 17.156 c 12.085,-5.133 25.681,-9.569 39.813,-12.531 V 7.5 c 0,-2.7391 -2.1671,-4.9062 -4.9062,-4.9062 h -30 z"
         style="fill:url(#linearGradient4515)" />
    </g>
  </g>
  <metadata
     id="metadata377">
    <rdf:RDF>
      <cc:Work>
        <dc:format>image/svg+xml</dc:format>
        <dc:type
           rdf:resource="http://purl.org/dc/dcmitype/StillImage" />
        <cc:license
           rdf:resource="http://creativecommons.org/publicdomain/zero/1.0/" />
        <dc:publisher>
          <cc:Agent
             rdf:about="http://openclipart.org/">
            <dc:title>Openclipart</dc:title>
          </cc:Agent>
        </dc:publisher>
      </cc:Work>
      <cc:License
         rdf:about="http://creativecommons.org/licenses/publicdomain/">
        <cc:permits
           rdf:resource="http://creativecommons.org/ns#Reproduction" />
        <cc:permits
           rdf:resource="http://creativecommons.org/ns#Distribution" />
        <cc:permits
           rdf:resource="http://creativecommons.org/ns#DerivativeWorks" />
      </cc:License>
    </rdf:RDF>
  </metadata>
</svg>
