<?xml version="1.0" encoding="UTF-8" standalone="no"?>
<!-- Created with Inkscape (http://www.inkscape.org/) -->

<svg
   xmlns:dc="http://purl.org/dc/elements/1.1/"
   xmlns:cc="http://creativecommons.org/ns#"
   xmlns:rdf="http://www.w3.org/1999/02/22-rdf-syntax-ns#"
   xmlns:svg="http://www.w3.org/2000/svg"
   xmlns="http://www.w3.org/2000/svg"
   xmlns:xlink="http://www.w3.org/1999/xlink"
   xmlns:sodipodi="http://sodipodi.sourceforge.net/DTD/sodipodi-0.dtd"
   xmlns:inkscape="http://www.inkscape.org/namespaces/inkscape"
   width="48px"
   height="48px"
   id="svg3049"
   version="1.1"
   inkscape:version="0.91 r13725"
   sodipodi:docname="muxAssemblyRefresh.svg">
  <defs
     id="defs3051">
    <linearGradient
       id="linearGradient3796">
      <stop
         style="stop-color:#002eff;stop-opacity:1;"
         offset="0"
         id="stop3798" />
      <stop
         style="stop-color:#000000;stop-opacity:1;"
         offset="1"
         id="stop3800" />
    </linearGradient>
    <linearGradient
       inkscape:collect="always"
       xlink:href="#linearGradient3796-9"
       id="linearGradient3802-4"
       x1="1.0714288"
       y1="14"
       x2="23.785713"
       y2="14"
       gradientUnits="userSpaceOnUse"
       gradientTransform="matrix(1.1441499,0,0,1.1453872,-1.7322215,-3.8211363)" />
    <linearGradient
       id="linearGradient3796-9">
      <stop
         style="stop-color:#002eff;stop-opacity:1;"
         offset="0"
         id="stop3798-8" />
      <stop
         style="stop-color:#000000;stop-opacity:1;"
         offset="1"
         id="stop3800-6" />
    </linearGradient>
    <linearGradient
       y2="14"
       x2="23.785713"
       y1="14"
       x1="1.0714288"
       gradientTransform="matrix(1.1441499,0,0,1.1453872,-0.93443514,18.964579)"
       gradientUnits="userSpaceOnUse"
       id="linearGradient3819"
       xlink:href="#linearGradient3796-9"
       inkscape:collect="always" />
    <linearGradient
       inkscape:collect="always"
       xlink:href="#linearGradient3796-3"
       id="linearGradient3802-3"
       x1="1.0714288"
       y1="14"
       x2="23.785713"
       y2="14"
       gradientUnits="userSpaceOnUse"
       gradientTransform="matrix(1.1441499,0,0,1.1453872,-1.7322215,-3.8211363)" />
    <linearGradient
       id="linearGradient3796-3">
      <stop
         style="stop-color:#002eff;stop-opacity:1;"
         offset="0"
         id="stop3798-1" />
      <stop
         style="stop-color:#000000;stop-opacity:1;"
         offset="1"
         id="stop3800-1" />
    </linearGradient>
    <linearGradient
       y2="14"
       x2="23.785713"
       y1="14"
       x1="1.0714288"
       gradientTransform="matrix(1.1441499,0,0,1.1453872,-1.7915791,20.250294)"
       gradientUnits="userSpaceOnUse"
       id="linearGradient3853-7"
       xlink:href="#linearGradient3796-3-7"
       inkscape:collect="always" />
    <linearGradient
       id="linearGradient3796-3-7">
      <stop
         style="stop-color:#002eff;stop-opacity:1;"
         offset="0"
         id="stop3798-1-9" />
      <stop
         style="stop-color:#000000;stop-opacity:1;"
         offset="1"
         id="stop3800-1-9" />
    </linearGradient>
  </defs>
  <sodipodi:namedview
     id="base"
     pagecolor="#ffffff"
     bordercolor="#666666"
     borderopacity="1.0"
     inkscape:pageopacity="0.0"
     inkscape:pageshadow="2"
     inkscape:zoom="14"
     inkscape:cx="22.208834"
     inkscape:cy="21.317847"
     inkscape:current-layer="layer1"
     showgrid="true"
     inkscape:grid-bbox="true"
     inkscape:document-units="px"
     inkscape:window-width="1920"
     inkscape:window-height="1018"
     inkscape:window-x="-8"
     inkscape:window-y="-8"
     inkscape:window-maximized="1" />
  <metadata
     id="metadata3054">
    <rdf:RDF>
      <cc:Work
         rdf:about="">
        <dc:format>image/svg+xml</dc:format>
        <dc:type
           rdf:resource="http://purl.org/dc/dcmitype/StillImage" />
        <dc:title />
      </cc:Work>
    </rdf:RDF>
  </metadata>
  <g
     id="layer1"
     inkscape:label="Layer 1"
     inkscape:groupmode="layer">
    <rect
       style="opacity:0.8;fill:#000eff;fill-opacity:1;stroke:#000eff;stroke-width:3.98188639;stroke-linecap:butt;stroke-miterlimit:4;stroke-opacity:1;stroke-dasharray:none;stroke-dashoffset:0"
       id="rect2990-5"
       width="44.435986"
       height="44.510635"
       x="2.0041099"
       y="1.9590726" />
    <text
       xml:space="preserve"
       style="font-size:35.33176422px;font-style:normal;font-weight:bold;line-height:125%;letter-spacing:0px;word-spacing:0px;fill:#ffcc00;fill-opacity:1;stroke:#ffcc00;stroke-width:0.90317184;font-family:Sans;-inkscape-font-specification:Sans Bold"
       x="-0.23185501"
       y="27.130928"
       id="text3001"
       sodipodi:linespacing="125%"
       transform="matrix(0.85771097,-0.0066609,-0.00704276,1.1659486,0,0)"><tspan
         sodipodi:role="line"
         id="tspan3003"
         x="-0.23185501"
         y="27.130928"
         style="font-size:23.18647003px;fill:#ffcc00;stroke:#ffcc00;stroke-width:0.90317184">mux</tspan></text>
    <g
       transform="matrix(0.5838126,0,0,0.57902602,20.648391,25.399905)"
       id="g3037">
      <path
         style="fill:#00dd41"
         d="M 22.696765,38.738438 C 20.517345,38.471359 18.253609,37.615832 16.353742,36.341236 14.633367,35.187059 14.16309,34.684442 7.4042749,26.776344 3.6300014,22.360285 0.98832929,19.195302 1.0225435,19.130401 c 0.04072,-0.07724 0.9162551,-0.111076 2.8942776,-0.111846 1.5597434,-6.01e-4 2.9784386,-0.02873 3.1526562,-0.06249 0.3558296,-0.06897 0.3048921,0.125817 0.4925923,-1.883659 0.3174257,-3.398288 1.4681354,-6.693738 3.2885554,-9.4179017 0.676789,-1.0127791 2.196857,-2.7510872 3.036483,-3.4724388 2.884246,-2.4779553 6.044899,-3.69749982 9.567239,-3.69153972 3.628078,0.006139 7.109051,1.43157292 9.922335,4.06312552 0.628471,0.5878737 13.10987,15.0959877 13.249677,15.4011457 0.04633,0.10113 0.06218,0.209736 0.03522,0.241346 -0.02696,0.03161 -1.430295,0.08409 -3.118514,0.116632 -1.68822,0.03254 -3.09401,0.08795 -3.123978,0.123137 -0.02997,0.03519 -0.128574,0.733861 -0.219124,1.552605 -0.531096,4.802067 -2.054758,8.424058 -4.882381,11.60621 -1.254999,1.412351 -2.283683,2.269255 -3.83165,3.191803 -2.771703,1.651863 -5.782099,2.320416 -8.789165,1.951913 z m 3.622123,-9.08415 c 1.72863,-0.566511 2.985221,-1.435372 4.104276,-2.837874 1.336034,-1.67444 2.246678,-4.158694 2.16038,-5.893562 l -0.02741,-0.550925 -3.773761,-0.05008 c -2.075569,-0.02755 -3.800965,-0.08202 -3.834215,-0.121053 -0.03325,-0.03903 1.155497,-1.524892 2.641658,-3.301907 1.48616,-1.777016 2.702111,-3.271889 2.702111,-3.321942 0,-0.21733 -0.953748,-1.445001 -1.57991,-2.033669 -2.794779,-2.6274348 -6.704892,-2.8992704 -9.761226,-0.678611 -0.851636,0.618777 -2.090191,2.068496 -2.614304,3.06002 -0.745267,1.409908 -1.302491,3.439133 -1.2373,4.505839 l 0.02682,0.438886 3.802159,0.05474 c 2.091188,0.03011 3.811772,0.06391 3.823521,0.07513 0.0879,0.0839 -0.280817,0.559044 -2.627335,3.385689 -1.456783,1.754857 -2.648326,3.236864 -2.647875,3.293347 0.002,0.248506 0.916972,1.498474 1.49804,2.046485 1.097398,1.034969 2.208767,1.654917 3.627647,2.02359 0.954317,0.247964 2.816856,0.200811 3.716717,-0.09409 z"
         id="path3043"
         inkscape:connector-curvature="0" />
      <path
         style="fill:#00cb3a"
         d="m 22.696765,38.738438 c -2.17942,-0.267079 -4.443156,-1.122606 -6.343023,-2.397202 -1.703966,-1.143169 -2.184382,-1.656857 -8.8967023,-9.512859 -3.638205,-4.258102 -6.387979,-7.552155 -6.3667514,-7.62696 0.029595,-0.104292 0.6785459,-0.14209 3.120577,-0.181759 1.6957662,-0.02755 3.1095246,-0.08099 3.1416856,-0.11877 0.032161,-0.03778 0.1082575,-0.62376 0.1691037,-1.302185 C 7.7233072,15.350311 8.0588614,13.77872 8.7384614,11.899705 11.321031,4.7592012 17.442676,0.21122245 24.054681,0.52076192 c 1.564737,0.0732528 2.890904,0.35543047 4.350908,0.92577258 1.879043,0.7340375 3.129221,1.5005908 4.6988,2.8810934 0.972416,0.8552749 13.508131,15.4432711 13.507394,15.7187531 -2.56e-4,0.09641 -0.06775,0.180391 -0.149992,0.18662 -0.08224,0.0062 -1.463246,0.04004 -3.068908,0.07513 -1.60566,0.03509 -2.943886,0.09259 -2.973834,0.12778 -0.02995,0.03519 -0.128538,0.733861 -0.219088,1.552605 -0.531096,4.802067 -2.054758,8.424058 -4.882381,11.60621 -1.254999,1.412351 -2.283683,2.269255 -3.83165,3.191803 -2.771703,1.651863 -5.782099,2.320416 -8.789165,1.951913 z M 15.01449,27.445623 c 2.177907,-2.399988 5.556948,-6.424424 6.212632,-7.399242 l 0.353721,-0.525882 -3.312857,-0.0014 c -1.822071,-8.01e-4 -3.404472,-0.03011 -3.516447,-0.06525 -0.202766,-0.06362 -0.203398,-0.06838 -0.156082,-1.175608 0.02835,-0.663477 0.120197,-1.414639 0.227787,-1.86299 0.212342,-0.884874 0.844723,-2.78316 0.953392,-2.861897 0.37745,-0.273483 -0.806511,-0.49227 -2.615783,-0.483377 -1.22453,0.006 -1.620144,0.04846 -2.520533,0.270367 -0.587413,0.144775 -1.2752097,0.346273 -1.5284378,0.447775 L 8.651468,13.9727 8.4101923,14.894582 c -0.2614441,0.99895 -0.50401,2.783842 -0.50401,3.708703 0,0.31813 -0.048061,0.649289 -0.1068022,0.735908 -0.091266,0.134579 -0.4900368,0.166404 -2.7413198,0.218773 -1.4489847,0.03371 -2.6692956,0.08648 -2.7118022,0.117282 -0.042507,0.0308 0.3209396,0.583294 0.8076582,1.227767 1.0888635,1.441784 7.3526207,8.72681 8.0922197,9.411608 l 0.537805,0.497955 0.534212,-0.492177 c 0.293815,-0.270699 1.507168,-1.564348 2.696337,-2.874778 z m 11.518003,2.159245 c 1.593769,-0.55858 2.748104,-1.382944 3.853843,-2.752207 0.87617,-1.084982 1.45409,-2.191678 1.853593,-3.549568 0.259516,-0.882079 0.303416,-1.163026 0.309325,-1.979569 l 0.0069,-0.951597 -3.588555,-0.06104 c -4.225263,-0.07187 -3.973043,-0.0588 -3.973043,-0.205933 0,-0.0642 1.191913,-1.526016 2.648695,-3.248487 1.456783,-1.72247 2.648696,-3.185485 2.648696,-3.251145 0,-0.241922 -0.917191,-1.43901 -1.579911,-2.062047 -2.794778,-2.6274348 -6.704891,-2.8992704 -9.761225,-0.678611 -0.851636,0.618777 -2.090191,2.068496 -2.614304,3.06002 -0.745268,1.409908 -1.302492,3.439133 -1.2373,4.505839 l 0.02682,0.438886 0.897139,0.06285 c 0.493426,0.03457 2.194786,0.06837 3.780799,0.07513 2.376826,0.01012 2.88366,0.03635 2.88366,0.149236 0,0.07533 -1.172688,1.550692 -2.605974,3.278583 -1.433286,1.727892 -2.605605,3.187562 -2.605154,3.243711 4.27e-4,0.05615 0.195278,0.405598 0.432947,0.776554 0.765403,1.194645 2.280565,2.42568 3.667438,2.979709 1.03091,0.411829 1.588923,0.499008 2.947742,0.460524 1.064945,-0.03016 1.404413,-0.07933 2.007882,-0.290833 z m 11.540769,-3.422454 0.732382,-0.171313 0.311737,-1.11673 c 0.360043,-1.289776 0.55189,-2.492293 0.629674,-3.946865 0.03021,-0.564911 0.09713,-1.065868 0.148722,-1.113239 0.05159,-0.04737 1.301939,-0.115052 2.778556,-0.150405 1.476617,-0.03535 2.70291,-0.08556 2.725095,-0.111567 0.07838,-0.09189 -1.688353,-2.257423 -5.49716,-6.738015 -2.119162,-2.492933 -3.91591,-4.5326053 -3.992772,-4.5326053 -0.280483,0 -6.416946,6.9641423 -8.356444,9.4835533 -0.992845,1.289706 -1.013963,1.326887 -0.924506,1.627731 l 0.09155,0.307876 3.030443,0 c 1.925566,0 3.090697,0.0378 3.195708,0.103692 0.338754,0.212542 0.167695,2.131391 -0.35687,4.003199 -0.146675,0.523378 -0.33682,1.113561 -0.422544,1.311517 l -0.155863,0.359922 0.699795,0.266944 c 0.608091,0.231963 1.422458,0.443647 2.323189,0.603884 0.513179,0.09129 2.325201,-0.02054 3.039311,-0.187579 z"
         id="path3041"
         inkscape:connector-curvature="0" />
      <path
         style="fill:#01b534"
         d="M 22.696765,38.738438 C 20.770813,38.502421 18.932468,37.857124 17.136082,36.786525 15.31613,35.701881 13.799475,34.355802 12.452255,32.629478 12.178389,32.278548 10.040922,29.763016 7.7023257,27.039408 1.3945323,19.693137 1.0092881,19.226713 1.158227,19.116296 c 0.071922,-0.05332 1.4173051,-0.09423 3.1275777,-0.0951 2.299634,-0.0012 3.0203137,-0.03081 3.0824229,-0.126744 0.044584,-0.06886 0.1269527,-0.687219 0.1830419,-1.374118 C 8.4610777,6.3783253 17.336499,-1.3429358 26.660656,0.89592931 c 1.196032,0.28718459 2.47149,0.80263329 3.691,1.49163749 1.773895,1.0022225 3.083624,2.1025945 4.468691,3.7543809 0.446433,0.5324022 2.48422,2.9147939 4.528415,5.2942033 5.675666,6.606383 7.262552,8.495779 7.262552,8.647023 0,0.08727 -0.102723,0.142492 -0.277686,0.149289 -0.152727,0.0059 -1.533732,0.03974 -3.0689,0.07513 -1.535167,0.03539 -2.815719,0.09313 -2.845671,0.128318 -0.02995,0.03519 -0.128546,0.733861 -0.219096,1.552605 -0.531096,4.802067 -2.054758,8.424058 -4.882381,11.60621 -1.254999,1.412351 -2.283683,2.269255 -3.83165,3.191803 -2.771703,1.651863 -5.782099,2.320416 -8.789165,1.951913 z m 7.726558,-2.100912 c 0.906874,-0.369758 1.200071,-0.538395 2.212238,-1.272407 3.332143,-2.416434 5.794008,-6.373216 6.749836,-10.848542 0.254294,-1.190642 0.47189,-2.956354 0.474348,-3.849154 9.22e-4,-0.335176 0.04749,-0.659737 0.104198,-0.726218 0.0757,-0.08875 0.858215,-0.120202 2.990462,-0.120202 1.918275,0 2.887933,-0.03453 2.887933,-0.102836 0,-0.149698 -9.812462,-11.6168284 -9.940559,-11.6168284 -0.166904,0 -4.049772,4.3535004 -7.314251,8.2007954 l -2.94331,3.468785 3.669565,0.05278 c 2.018261,0.02903 3.684827,0.06284 3.703479,0.07513 0.01865,0.01229 0.01251,0.439296 -0.01365,0.948902 -0.184937,3.602596 -2.087155,6.878372 -4.959091,8.53996 -2.451213,1.418175 -5.002713,1.443622 -7.749279,0.07728 -0.39944,-0.198709 -0.897374,-0.497487 -1.106519,-0.663952 l -0.380264,-0.302661 0.204574,0.336816 c 0.359521,0.591921 1.810941,2.306285 2.649278,3.129228 2.005115,1.968299 4.528224,3.610416 7.134389,4.643281 0.46993,0.18624 0.855871,0.339393 0.857647,0.34034 0.0018,9.02e-4 0.347815,-0.138776 0.768976,-0.310495 z M 14.675619,28.012448 c 1.516528,-1.692604 3.788852,-4.318259 5.049608,-5.83479 l 2.292287,-2.757327 -3.41371,0 c -1.87754,0 -3.53932,-0.02945 -3.692846,-0.06545 l -0.279137,-0.06545 0.05009,-1.011358 c 0.222485,-4.491945 3.337567,-8.5195869 7.216342,-9.3303613 3.143852,-0.6571544 6.326241,0.7252338 8.428406,3.6611893 l 0.322745,0.450756 0.504797,-0.639727 c 0.277641,-0.35185 0.503874,-0.689917 0.502742,-0.75126 C 31.653312,11.471882 30.506411,9.8792066 29.793329,9.0807138 26.868907,5.8060186 22.709954,3.710128 17.827718,3.0506836 16.648919,2.8914629 16.814046,2.8509499 15.441591,3.636104 14.827748,3.9872719 13.362362,5.2424551 12.59928,6.0706998 9.8998213,9.0006735 8.048871,13.618393 7.8505251,17.917809 c -0.029228,0.633564 -0.087688,1.230816 -0.1299114,1.327227 -0.070833,0.16174 -0.3011668,0.175295 -2.9787839,0.175295 -2.2697927,0 -2.9020147,0.02737 -2.9020147,0.125627 0,0.0691 1.7205841,2.132333 3.8235202,4.584974 5.0649437,5.907212 6.0605427,7.036518 6.1662417,6.994362 0.0488,-0.01946 1.329515,-1.420241 2.846042,-3.112846 z m 11.856874,1.632555 c 0.976556,-0.330269 2.263364,-1.113559 3.051202,-1.85729 1.784024,-1.684145 3.070784,-4.551309 2.997721,-6.679528 l -0.02528,-0.736258 -3.417671,-0.06152 c -4.363459,-0.07855 -4.143927,-0.06763 -4.143927,-0.205976 0,-0.06448 1.191913,-1.523193 2.648695,-3.241575 1.456783,-1.718382 2.648696,-3.189423 2.648696,-3.26898 0,-0.436636 -1.519414,-2.154713 -2.520533,-2.85009 -2.697134,-1.8734301 -6.140752,-1.8262399 -8.820603,0.120876 -0.851636,0.618777 -2.090191,2.068496 -2.614304,3.06002 -0.745267,1.409908 -1.302491,3.439133 -1.2373,4.505839 l 0.02682,0.438886 0.598092,0.06268 c 0.328951,0.03448 2.030311,0.06828 3.7808,0.07513 2.119648,0.0083 3.182706,0.0469 3.182706,0.115609 0,0.118602 -1.419183,1.938791 -2.262562,2.901875 -0.313592,0.358101 -1.111243,1.317592 -1.772558,2.132202 -1.378933,1.698574 -1.332792,1.471163 -0.530005,2.612165 0.976916,1.388491 2.696465,2.545191 4.489337,3.019875 0.838722,0.22206 3.081978,0.139705 3.920669,-0.143939 z"
         id="path3039"
         inkscape:connector-curvature="0" />
    </g>
  </g>
</svg>
